<svg xmlns="http://www.w3.org/2000/svg" xmlns:xlink="http://www.w3.org/1999/xlink" fill="none" version="1.1" width="389.41900634765625" height="254.39439392089844" viewBox="0 0 389.41900634765625 254.39439392089844"><defs><linearGradient x1="0.5008745789527893" y1="0.9696750044822693" x2="0.5008745789527893" y2="0.07995497435331345" id="master_svg_0"><stop offset="0%" stop-color="#F5F8FF" stop-opacity="1"/><stop offset="99.12999868392944%" stop-color="#D8E0EB" stop-opacity="1"/></linearGradient><linearGradient x1="0.5" y1="0" x2="0.5" y2="1" id="master_svg_1"><stop offset="0%" stop-color="#E3E8F0" stop-opacity="1"/><stop offset="100%" stop-color="#CCD3DE" stop-opacity="1"/></linearGradient><linearGradient x1="0.5" y1="0" x2="0.5" y2="1" id="master_svg_2"><stop offset="0%" stop-color="#E3E8F0" stop-opacity="1"/><stop offset="100%" stop-color="#CCD3DE" stop-opacity="1"/></linearGradient><linearGradient x1="0.5002472400665283" y1="0" x2="0.5002472400665283" y2="1" id="master_svg_3"><stop offset="0%" stop-color="#E3E8F0" stop-opacity="1"/><stop offset="100%" stop-color="#CCD3DE" stop-opacity="1"/></linearGradient><linearGradient x1="0.4995054304599762" y1="0" x2="0.4995054304599762" y2="1" id="master_svg_4"><stop offset="0%" stop-color="#E3E8F0" stop-opacity="1"/><stop offset="100%" stop-color="#CCD3DE" stop-opacity="1"/></linearGradient><linearGradient x1="0.5" y1="0" x2="0.5" y2="1" id="master_svg_5"><stop offset="0%" stop-color="#E3E8F0" stop-opacity="1"/><stop offset="100%" stop-color="#CCD3DE" stop-opacity="1"/></linearGradient><linearGradient x1="0.5000433325767517" y1="0" x2="0.5000433325767517" y2="1" id="master_svg_6"><stop offset="0%" stop-color="#E3E8F0" stop-opacity="1"/><stop offset="100%" stop-color="#CCD3DE" stop-opacity="1"/></linearGradient><linearGradient x1="0.5" y1="0" x2="0.5" y2="1" id="master_svg_7"><stop offset="0%" stop-color="#E3E8F0" stop-opacity="1"/><stop offset="100%" stop-color="#CCD3DE" stop-opacity="1"/></linearGradient><linearGradient x1="0.5" y1="0" x2="0.5" y2="1" id="master_svg_8"><stop offset="0%" stop-color="#E3E8F0" stop-opacity="1"/><stop offset="100%" stop-color="#CCD3DE" stop-opacity="1"/></linearGradient><linearGradient x1="-0.0009109278325922787" y1="0.48123979568481445" x2="0.9983271956443787" y2="0.48123979568481445" id="master_svg_9"><stop offset="0%" stop-color="#B0BACC" stop-opacity="1"/><stop offset="100%" stop-color="#969EAE" stop-opacity="1"/></linearGradient><linearGradient x1="0.0014358790358528495" y1="0.5073757171630859" x2="1.0004711151123047" y2="0.5073757171630859" id="master_svg_a"><stop offset="0%" stop-color="#B0BACC" stop-opacity="1"/><stop offset="100%" stop-color="#969EAE" stop-opacity="1"/></linearGradient><linearGradient x1="0.812737226486206" y1="0" x2="0.1827288120985031" y2="0" id="master_svg_b"><stop offset="0%" stop-color="#E3E8F0" stop-opacity="1"/><stop offset="100%" stop-color="#CCD3DE" stop-opacity="1"/></linearGradient><linearGradient x1="0.8127565979957581" y1="0" x2="0.1827479749917984" y2="0" id="master_svg_c"><stop offset="0%" stop-color="#E3E8F0" stop-opacity="1"/><stop offset="100%" stop-color="#CCD3DE" stop-opacity="1"/></linearGradient><linearGradient x1="0.8127565979957581" y1="0" x2="0.1827479749917984" y2="0" id="master_svg_d"><stop offset="0%" stop-color="#E3E8F0" stop-opacity="1"/><stop offset="100%" stop-color="#CCD3DE" stop-opacity="1"/></linearGradient><linearGradient x1="0.8127565979957581" y1="0" x2="0.1827479749917984" y2="0" id="master_svg_e"><stop offset="0%" stop-color="#E3E8F0" stop-opacity="1"/><stop offset="100%" stop-color="#CCD3DE" stop-opacity="1"/></linearGradient><linearGradient x1="0.8127565979957581" y1="0" x2="0.1827479749917984" y2="0" id="master_svg_f"><stop offset="0%" stop-color="#E3E8F0" stop-opacity="1"/><stop offset="100%" stop-color="#CCD3DE" stop-opacity="1"/></linearGradient><linearGradient x1="0.8127565979957581" y1="0" x2="0.1827479749917984" y2="0" id="master_svg_g"><stop offset="0%" stop-color="#E3E8F0" stop-opacity="1"/><stop offset="100%" stop-color="#CCD3DE" stop-opacity="1"/></linearGradient><linearGradient x1="0.8127565979957581" y1="0" x2="0.1827479749917984" y2="0" id="master_svg_h"><stop offset="0%" stop-color="#E3E8F0" stop-opacity="1"/><stop offset="100%" stop-color="#CCD3DE" stop-opacity="1"/></linearGradient><linearGradient x1="0.8127925395965576" y1="0" x2="0.18270063400268555" y2="0" id="master_svg_i"><stop offset="0%" stop-color="#E3E8F0" stop-opacity="1"/><stop offset="100%" stop-color="#CCD3DE" stop-opacity="1"/></linearGradient><linearGradient x1="0.8127769231796265" y1="0" x2="0.18274448812007904" y2="0" id="master_svg_j"><stop offset="0%" stop-color="#E3E8F0" stop-opacity="1"/><stop offset="100%" stop-color="#CCD3DE" stop-opacity="1"/></linearGradient><linearGradient x1="0.8127672672271729" y1="0" x2="0.18273845314979553" y2="0" id="master_svg_k"><stop offset="0%" stop-color="#E3E8F0" stop-opacity="1"/><stop offset="100%" stop-color="#CCD3DE" stop-opacity="1"/></linearGradient><linearGradient x1="0.8127769231796265" y1="0" x2="0.18274448812007904" y2="0" id="master_svg_l"><stop offset="0%" stop-color="#E3E8F0" stop-opacity="1"/><stop offset="100%" stop-color="#CCD3DE" stop-opacity="1"/></linearGradient><linearGradient x1="0.8128108978271484" y1="0" x2="0.18273845314979553" y2="0" id="master_svg_m"><stop offset="0%" stop-color="#E3E8F0" stop-opacity="1"/><stop offset="100%" stop-color="#CCD3DE" stop-opacity="1"/></linearGradient><filter id="master_svg_n" filterUnits="userSpaceOnUse" color-interpolation-filters="sRGB" x="107.44155883789062" y="77.60374450683594" width="146.8828887939453" height="127.53282165527344"><feFlood flood-opacity="0" result="BackgroundImageFix"/><feColorMatrix in="SourceAlpha" type="matrix" values="0 0 0 0 0 0 0 0 0 0 0 0 0 0 0 0 0 0 127 0"/><feOffset dy="11" dx="0"/><feGaussianBlur stdDeviation="11"/><feColorMatrix type="matrix" values="0 0 0 0 0.3960784375667572 0 0 0 0 0.47843137383461 0 0 0 0 0.5764706134796143 0 0 0 0.27000001072883606 0"/><feBlend mode="normal" in2="BackgroundImageFix" result="effect1_dropShadow"/><feBlend mode="normal" in="SourceGraphic" in2="effect1_dropShadow" result="shape"/></filter><linearGradient x1="0.8127307891845703" y1="0" x2="0.182785302400589" y2="0" id="master_svg_o"><stop offset="0%" stop-color="#E3E8F0" stop-opacity="1"/><stop offset="100%" stop-color="#CCD3DE" stop-opacity="1"/></linearGradient><linearGradient x1="0.8127965927124023" y1="0" x2="0.1827644258737564" y2="0" id="master_svg_p"><stop offset="0%" stop-color="#E3E8F0" stop-opacity="1"/><stop offset="100%" stop-color="#CCD3DE" stop-opacity="1"/></linearGradient><linearGradient x1="0.812802255153656" y1="0" x2="0.18271344900131226" y2="0" id="master_svg_q"><stop offset="0%" stop-color="#E3E8F0" stop-opacity="1"/><stop offset="100%" stop-color="#CCD3DE" stop-opacity="1"/></linearGradient><linearGradient x1="0.8127965927124023" y1="0" x2="0.1827644258737564" y2="0" id="master_svg_r"><stop offset="0%" stop-color="#E3E8F0" stop-opacity="1"/><stop offset="100%" stop-color="#CCD3DE" stop-opacity="1"/></linearGradient></defs><g style="mix-blend-mode:passthrough"><g><g style="mix-blend-mode:passthrough"><path d="M39.323001861572266,235.79139709472656L87.06000186157226,235.79139709472656L87.06000186157226,239.66839709472657L39.323001861572266,239.66839709472657L39.323001861572266,235.79139709472656Z" fill="#A9B2C2" fill-opacity="1"/></g><g style="mix-blend-mode:passthrough"><path d="M42.27300186157227,227.10840747070313C42.67500186157226,225.87240747070314,43.82700186157226,225.03640747070312,45.12600186157226,225.03640747070312L81.38200186157226,225.03640747070312C82.68100186157227,225.03640747070312,83.83300186157226,225.87240747070314,84.23500186157227,227.10840747070313L87.06000186157226,235.79140747070312L39.448001861572266,235.79140747070312L42.27300186157227,227.10840747070313Z" fill="#A9B2C2" fill-opacity="1"/></g><g style="mix-blend-mode:passthrough"><path d="M160.57799911499023,86.29990124511718L147.33199911499025,72.91789124511719L148.04299911499024,72.21440124511719L148.03299911499022,73.21435124511719L24.567875314990236,71.96435024511719L24.577999114990234,70.96440124511719L25.577999114990234,70.96440124511719L25.577999114990234,85.59640124511719L24.577999114990234,85.59640124511719L24.577999114990234,84.59640124511719L161.28899911499025,84.59640124511719L161.28899911499025,85.59640124511719L160.57799911499023,86.29990124511718ZM161.99999911499023,84.89290124511719L161.28899911499025,86.59640124511719L24.577999114990234,86.59640124511719L23.577999114990234,85.59640124511719L23.577999114990234,70.96440124511719L24.588122914990233,69.96445224511719L148.05299911499023,71.21445224511719L148.75399911499022,71.51091524511719L161.99999911499023,84.89290124511719Z" fill="#A9B2C2" fill-opacity="1"/></g><g style="mix-blend-mode:passthrough"><path d="M149.04299975585937,72.21440124511719L149.04299975585937,72.71540124511719L148.04299975585937,72.71540124511719L149.04299975585937,72.71540124511719L149.04299975585937,85.59640124511719L147.38329975585938,86.34800124511719L132.13729975585937,72.96595724511718L132.79699975585936,72.21440124511719L133.79699975585936,72.21440124511719L133.79699975585936,85.59640124511719L132.14039975585936,86.35060124511719L116.76939975585938,72.9686202451172L117.42599975585938,72.21440124511719L118.42599975585938,72.21440124511719L118.42599975585938,85.59640124511719L116.76629975585938,86.34790124511719L101.52130575585937,72.9659352451172L102.18099975585938,72.21440124511719L103.18099975585938,72.21440124511719L103.18099975585938,85.59640124511719L101.18099975585938,85.59640124511719L101.18099975585938,72.21440124511719L102.84069375585938,71.46286724511718L118.08569975585938,84.84490124511719L117.42599975585938,85.59640124511719L116.42599975585938,85.59640124511719L116.42599975585938,72.21440124511719L118.08259975585938,71.46018224511718L133.4535997558594,84.8422012451172L132.79699975585936,85.59640124511719L131.79699975585936,85.59640124511719L131.79699975585936,72.21440124511719L133.45669975585938,71.4628452451172L148.70269975585938,84.84480124511718L148.04299975585937,85.59640124511719L147.04299975585937,85.59640124511719L147.04299975585937,72.71540124511719L147.04299975585937,72.71540124511719L147.04299975585937,72.21440124511719L149.04299975585937,72.21440124511719Z" fill="#A9B2C2" fill-opacity="1"/></g><g style="mix-blend-mode:passthrough"><path d="M39.948001861572266,85.59540124511719L39.948001861572266,71.21440124511719L41.948001861572266,71.21440124511719L41.948001861572266,85.59540124511719L39.948001861572266,85.59540124511719Z" fill="#A9B2C2" fill-opacity="1"/></g><g style="mix-blend-mode:passthrough"><path d="M87.81000299072265,72.21440124511719L87.81000299072265,85.59640124511719L86.15030299072265,86.34800124511719L70.90433399072266,72.96595724511718L72.22367199072265,71.4628452451172L87.46970299072265,84.84480124511718L86.81000299072265,85.59640124511719L85.81000299072265,85.59640124511719L85.81000299072265,72.21440124511719L87.81000299072265,72.21440124511719Z" fill="#A9B2C2" fill-opacity="1"/></g><g style="mix-blend-mode:passthrough"><path d="M70.56400299072266,85.59640124511719L70.56400299072266,72.21440124511719L72.56400299072266,72.21440124511719L72.56400299072266,85.59640124511719L70.56400299072266,85.59640124511719Z" fill="#A9B2C2" fill-opacity="1"/></g><g style="mix-blend-mode:passthrough"><path d="M70.43900024414063,218.78239965820313L70.43900024414063,57.33239965820312L71.43900024414063,57.33239965820312L70.75990024414062,58.06647965820312L62.51293024414063,50.43747565820313L63.19200024414062,49.703399658203125L63.87659024414062,50.432323658203124L55.75359524414063,58.061319658203125L55.069000244140625,57.33239965820312L56.069000244140625,57.33239965820312L56.069000244140625,218.78239965820313L55.069000244140625,218.78239965820313L55.069000244140625,217.78239965820313L71.43900024414063,217.78239965820313L71.43900024414063,218.78239965820313L70.43900024414063,218.78239965820313ZM72.43900024414063,218.78239965820313L71.43900024414063,219.78239965820313L55.069000244140625,219.78239965820313L54.069000244140625,218.78239965820313L54.069000244140625,57.33239965820312L54.38440524414062,56.60347965820313L62.50741024414062,48.974475658203126L63.871070244140626,48.96932365820312L72.11810024414062,56.598319658203124L72.43900024414063,57.33239965820312L72.43900024414063,218.78239965820313Z" fill="#A9B2C2" fill-opacity="1"/></g><g style="mix-blend-mode:passthrough"><path d="M71.43900024414063,59.20840072631836L55.069000244140625,59.20840072631836L55.069000244140625,57.20840072631836L71.43900024414063,57.20840072631836L71.43900024414063,59.20840072631836Z" fill="#A9B2C2" fill-opacity="1"/></g><g style="mix-blend-mode:passthrough"><path d="M71.43900024414063,100.47740173339844L55.069000244140625,100.47740173339844L55.069000244140625,98.47740173339844L71.43900024414063,98.47740173339844L71.43900024414063,100.47740173339844Z" fill="#A9B2C2" fill-opacity="1"/></g><g style="mix-blend-mode:passthrough"><path d="M71.43900024414063,113.7333984375L55.069000244140625,113.7333984375L55.069000244140625,111.7333984375L71.43900024414063,111.7333984375L71.43900024414063,113.7333984375Z" fill="#A9B2C2" fill-opacity="1"/></g><g style="mix-blend-mode:passthrough"><path d="M71.43900024414063,126.8644027709961L55.069000244140625,126.8644027709961L55.069000244140625,124.8644027709961L71.43900024414063,124.8644027709961L71.43900024414063,126.8644027709961Z" fill="#A9B2C2" fill-opacity="1"/></g><g style="mix-blend-mode:passthrough"><path d="M71.43900024414063,140.1204071044922L55.069000244140625,140.1204071044922L55.069000244140625,138.1204071044922L71.43900024414063,138.1204071044922L71.43900024414063,140.1204071044922Z" fill="#A9B2C2" fill-opacity="1"/></g><g style="mix-blend-mode:passthrough"><path d="M71.43900024414063,153.3773956298828L55.069000244140625,153.3773956298828L55.069000244140625,151.3773956298828L71.43900024414063,151.3773956298828L71.43900024414063,153.3773956298828Z" fill="#A9B2C2" fill-opacity="1"/></g><g style="mix-blend-mode:passthrough"><path d="M71.43900024414063,166.63340759277344L55.069000244140625,166.63340759277344L55.069000244140625,164.63340759277344L71.43900024414063,164.63340759277344L71.43900024414063,166.63340759277344Z" fill="#A9B2C2" fill-opacity="1"/></g><g style="mix-blend-mode:passthrough"><path d="M71.43900024414063,179.764404296875L55.069000244140625,179.764404296875L55.069000244140625,177.764404296875L71.43900024414063,177.764404296875L71.43900024414063,179.764404296875Z" fill="#A9B2C2" fill-opacity="1"/></g><g style="mix-blend-mode:passthrough"><path d="M71.43900024414063,193.02040100097656L55.069000244140625,193.02040100097656L55.069000244140625,191.02040100097656L71.43900024414063,191.02040100097656L71.43900024414063,193.02040100097656Z" fill="#A9B2C2" fill-opacity="1"/></g><g style="mix-blend-mode:passthrough"><path d="M71.43900024414063,206.27639770507812L55.069000244140625,206.27639770507812L55.069000244140625,204.27639770507812L71.43900024414063,204.27639770507812L71.43900024414063,206.27639770507812Z" fill="#A9B2C2" fill-opacity="1"/></g><g style="mix-blend-mode:passthrough"><path d="M135.62700021362303,73.04509965820313L62.89780021362305,50.65914965820313L63.19200021362305,49.703399658203125L63.717600213623044,50.55414765820313L29.10157321362305,71.93909965820313L28.050427213623045,70.23769965820313L62.66640021362305,48.85265165820312L63.48620021362305,48.74764965820312L136.21500021362306,71.13369965820313L135.62700021362303,73.04509965820313Z" fill="#A9B2C2" fill-opacity="1"/></g><g style="mix-blend-mode:passthrough"><path d="M70.91340024414063,86.3548017944336L54.41838324414063,72.22280779443359L55.71961724414062,70.7039957944336L72.21460024414063,84.8360017944336L70.91340024414063,86.3548017944336Z" fill="#A9B2C2" fill-opacity="1"/></g><g style="mix-blend-mode:passthrough"><path d="M70.42470024414062,99.74639739990235L54.92973924414063,86.86538739990235L56.20826124414062,85.32740739990234L71.70330024414062,98.20839739990234L70.42470024414062,99.74639739990235Z" fill="#A9B2C2" fill-opacity="1"/></g><g style="mix-blend-mode:passthrough"><path d="M70.56400024414063,71.74400072631836L54.944031244140625,59.239049726318356L56.193969244140625,57.67775172631836L71.81400024414063,70.18280072631836L70.56400024414063,71.74400072631836Z" fill="#A9B2C2" fill-opacity="1"/></g><g style="mix-blend-mode:passthrough"><path d="M53.714001861572264,86.02880179443359L40.71798286157227,72.14682879443359L42.178020861572264,70.7799747944336L55.174001861572265,84.66200179443359L53.714001861572264,86.02880179443359Z" fill="#A9B2C2" fill-opacity="1"/></g><g style="mix-blend-mode:passthrough"><path d="M39.91459911499024,86.09810179443359L24.044609114990234,72.2160787944336L25.361389114990235,70.71072479443359L41.23139911499024,84.5927017944336L39.91459911499024,86.09810179443359Z" fill="#A9B2C2" fill-opacity="1"/></g><g style="mix-blend-mode:passthrough"><path d="M101.01359755859374,85.71510124511718L86.64254855859375,72.8340572451172L87.97744655859375,71.34474524511718L102.34839755859375,84.2257012451172L101.01359755859374,85.71510124511718Z" fill="#A9B2C2" fill-opacity="1"/></g><g style="mix-blend-mode:passthrough"><path d="M70.43670024414062,113.01220173339844L55.06668224414062,100.63116573339843L56.32131824414063,99.07363773339844L71.69130024414062,111.45460173339843L70.43670024414062,113.01220173339844Z" fill="#A9B2C2" fill-opacity="1"/></g><g style="mix-blend-mode:passthrough"><path d="M70.44450024414063,126.1493984375L55.074457244140625,114.0183604375L56.313543244140625,112.4484364375L71.68350024414062,124.5793984375L70.44450024414063,126.1493984375Z" fill="#A9B2C2" fill-opacity="1"/></g><g style="mix-blend-mode:passthrough"><path d="M70.44360024414063,139.4047027709961L54.94863624414062,127.14871677099609L56.18936424414063,125.5800887709961L71.68440024414062,137.8361027709961L70.44360024414063,139.4047027709961Z" fill="#A9B2C2" fill-opacity="1"/></g><g style="mix-blend-mode:passthrough"><path d="M70.44760024414063,152.66479892578124L54.95255124414062,140.53379392578125L56.18544924414063,138.95900392578125L71.68050024414063,151.08999892578126L70.44760024414063,152.66479892578124Z" fill="#A9B2C2" fill-opacity="1"/></g><g style="mix-blend-mode:passthrough"><path d="M70.44760024414063,165.7957956298828L54.95255124414062,153.66479062988282L56.18544924414063,152.0900006298828L71.68050024414063,164.22099562988282L70.44760024414063,165.7957956298828Z" fill="#A9B2C2" fill-opacity="1"/></g><g style="mix-blend-mode:passthrough"><path d="M70.44360024414063,179.04870759277344L54.94863624414062,166.79272159277343L56.18936424414063,165.22409359277344L71.68440024414062,177.48010759277344L70.44360024414063,179.04870759277344Z" fill="#A9B2C2" fill-opacity="1"/></g><g style="mix-blend-mode:passthrough"><path d="M70.44360024414063,192.304704296875L54.94863624414062,180.048718296875L56.18936424414063,178.480090296875L71.68440024414062,190.736104296875L70.44360024414063,192.304704296875Z" fill="#A9B2C2" fill-opacity="1"/></g><g style="mix-blend-mode:passthrough"><path d="M70.44370024414063,205.56069282226562L54.94866724414062,193.30573082226562L56.18933324414063,191.73705482226563L71.68430024414063,203.99209282226562L70.44370024414063,205.56069282226562Z" fill="#A9B2C2" fill-opacity="1"/></g><g style="mix-blend-mode:passthrough"><path d="M70.44760024414063,218.81979770507812L54.95255124414062,206.68879270507813L56.18544924414063,205.11400270507812L71.68050024414063,217.24499770507813L70.44760024414063,218.81979770507812Z" fill="#A9B2C2" fill-opacity="1"/></g><g style="mix-blend-mode:passthrough"><path d="M47.571998596191406,218.6584014892578L78.81199859619142,218.6584014892578C79.9159985961914,218.6584014892578,80.81199859619142,219.55340148925782,80.81199859619142,220.6584014892578L80.81199859619142,225.0364014892578L45.571998596191406,225.0364014892578L45.571998596191406,220.6584014892578C45.571998596191406,219.55340148925782,46.46699859619141,218.6584014892578,47.571998596191406,218.6584014892578Z" fill="#A9B2C2" fill-opacity="1"/></g><g style="mix-blend-mode:passthrough"><path d="M89.30900024414063,97.72639739990234L79.93700024414062,107.10539739990234C79.31200024414062,107.73139739990235,78.43700024414062,108.10639739990235,77.68700024414062,108.10639739990235L54.194000244140625,108.10639739990235L54.194000244140625,86.09639739990234L90.43400024414063,86.09639739990234L90.43400024414063,95.35039739990235C90.18400024414063,96.35039739990235,89.93400024414063,97.10139739990234,89.30900024414063,97.72639739990234Z" fill="#A9B2C2" fill-opacity="1"/></g><g style="mix-blend-mode:passthrough"><path d="M67.95699908447266,96.08739636230469L58.959999084472656,96.08739636230469C58.40799908447266,96.08739636230469,57.959999084472656,95.6393963623047,57.959999084472656,95.08739636230469L57.959999084472656,90.70939636230469C57.959999084472656,90.15639636230469,58.40799908447266,89.70939636230469,58.959999084472656,89.70939636230469L67.95699908447266,89.70939636230469C68.50899908447266,89.70939636230469,68.95699908447266,90.15639636230469,68.95699908447266,90.70939636230469L68.95699908447266,95.08739636230469C68.95699908447266,95.6393963623047,68.50899908447266,96.08739636230469,67.95699908447266,96.08739636230469Z" fill="#FFFFFF" fill-opacity="1"/></g><g style="mix-blend-mode:passthrough"><path d="M82.1730025024414,96.08639636230468L73.1760025024414,96.08639636230468C72.6240025024414,96.08639636230468,72.1760025024414,95.6393963623047,72.1760025024414,95.08639636230468L72.1760025024414,90.70939636230469C72.1760025024414,90.15639636230469,72.6240025024414,89.70939636230469,73.1760025024414,89.70939636230469L82.1730025024414,89.70939636230469C82.72500250244141,89.70939636230469,83.1730025024414,90.15639636230469,83.1730025024414,90.70939636230469L83.1730025024414,95.08639636230468C83.1730025024414,95.6393963623047,82.72500250244141,96.08639636230468,82.1730025024414,96.08639636230468Z" fill="#FFFFFF" fill-opacity="1"/></g><g style="mix-blend-mode:passthrough"><path d="M27.027000259399415,200.56939697265625L22.128000259399414,200.56939697265625L22.128000259399414,240.58739697265625L27.027000259399415,240.58739697265625L27.027000259399415,200.56939697265625Z" fill="#B9C0D0" fill-opacity="1"/></g><g style="mix-blend-mode:passthrough"><path d="M61.800001525878905,200.56939697265625L56.900001525878906,200.56939697265625L56.900001525878906,240.58739697265625L61.800001525878905,240.58739697265625L61.800001525878905,200.56939697265625Z" fill="#B9C0D0" fill-opacity="1"/></g><g style="mix-blend-mode:passthrough"><path d="M209.74199560546873,239.16440307617188C196.46499560546874,239.48040307617188,180.65899560546876,239.16440307617188,169.43699560546875,239.0054030761719C158.21499560546874,239.32240307617187,142.40899560546876,239.48040307617188,129.13299560546875,239.16440307617188C142.25099560546874,231.72940307617188,146.67699560546876,217.96840307617188,147.46699560546875,208.79440307617188L191.24899560546874,208.79440307617188C192.19699560546874,217.96840307617188,196.62299560546876,231.72940307617188,209.74199560546873,239.16440307617188Z" fill="url(#master_svg_0)" fill-opacity="1"/></g><g style="mix-blend-mode:passthrough"><path d="M251.78499688720703,93.6414033203125L251.78499688720703,207.3704033203125C251.78499688720703,210.21740332031248,249.57199688720704,212.2744033203125,246.88499688720702,212.2744033203125L91.98899688720704,212.2744033203125C89.30199688720703,212.2744033203125,87.08899688720703,210.0594033203125,87.08899688720703,207.3704033203125L87.08899688720703,93.6414033203125C87.08899688720703,90.9524033203125,89.30199688720703,88.7384033203125,91.98899688720704,88.7384033203125L246.88499688720702,88.7384033203125C249.57199688720704,88.7384033203125,251.78499688720703,90.7944033203125,251.78499688720703,93.6414033203125Z" fill="#E8EDF8" fill-opacity="1"/></g><g style="mix-blend-mode:passthrough"><path d="M251.78500164794923,93.6414033203125L251.78500164794923,191.7114033203125L87.24700164794922,191.7114033203125L87.24700164794922,93.6414033203125C87.24700164794922,90.9524033203125,89.46000164794921,88.7384033203125,92.14700164794922,88.7384033203125L247.0430016479492,88.7384033203125C249.5720016479492,88.7384033203125,251.78500164794923,90.7944033203125,251.78500164794923,93.6414033203125Z" fill="#B9C0D0" fill-opacity="1"/></g><g style="mix-blend-mode:passthrough"><path d="M245.93700067138673,94.74839782714844L93.09600067138672,94.74839782714844L93.09600067138672,186.01639782714844L245.7790006713867,186.01639782714844L245.7790006713867,94.74839782714844L245.93700067138673,94.74839782714844Z" fill="#FFFFFF" fill-opacity="1"/></g><g style="mix-blend-mode:passthrough"><path d="M169.4370029296875,205.94640502929687C171.7070029296875,205.94640502929687,173.5470029296875,204.1054050292969,173.5470029296875,201.83440502929687C173.5470029296875,199.56240502929688,171.7070029296875,197.72140502929688,169.4370029296875,197.72140502929688C167.1680029296875,197.72140502929688,165.3280029296875,199.56240502929688,165.3280029296875,201.83440502929687C165.3280029296875,204.1054050292969,167.1680029296875,205.94640502929687,169.4370029296875,205.94640502929687Z" fill="#B9C0D0" fill-opacity="1"/></g><g style="mix-blend-mode:passthrough"><path d="M342.14499072265625,204.99839782714844L337.87799072265625,204.99839782714844L337.87799072265625,240.11339782714845L342.14499072265625,240.11339782714845L342.14499072265625,204.99839782714844Z" fill="#B9C0D0" fill-opacity="1"/></g><g style="mix-blend-mode:passthrough"><path d="M372.64899780273436,204.99839782714844L368.3789978027344,204.99839782714844L368.3789978027344,240.11339782714845L372.64899780273436,240.11339782714845L372.64899780273436,204.99839782714844Z" fill="#B9C0D0" fill-opacity="1"/></g><g style="mix-blend-mode:passthrough"><path d="M378.02898632812503,206.57940673828125L333.135986328125,206.57940673828125L333.135986328125,220.97340673828126L378.02898632812503,220.97340673828126L378.02898632812503,206.57940673828125Z" fill="#E8EDF8" fill-opacity="1"/></g><g style="mix-blend-mode:passthrough"><path d="M344.04199487304686,206.57940673828125L339.2999948730469,220.97340673828126L333.9259948730469,220.97340673828126L338.5099948730469,206.57940673828125L344.04199487304686,206.57940673828125Z" fill="url(#master_svg_1)" fill-opacity="1"/></g><g style="mix-blend-mode:passthrough"><path d="M354.94800073242186,206.57940673828125L350.2060007324219,220.97340673828126L344.8320007324219,220.97340673828126L349.4160007324219,206.57940673828125L354.94800073242186,206.57940673828125Z" fill="url(#master_svg_2)" fill-opacity="1"/></g><g style="mix-blend-mode:passthrough"><path d="M365.84900659179686,206.57940673828125L361.10900659179686,220.97340673828126L355.7380065917969,220.97340673828126L360.3220065917969,206.57940673828125L365.84900659179686,206.57940673828125Z" fill="url(#master_svg_3)" fill-opacity="1"/></g><g style="mix-blend-mode:passthrough"><path d="M376.75898681640626,206.57940673828125L372.01898681640625,220.97340673828126L366.64898681640625,220.97340673828126L371.22898681640623,206.57940673828125L376.75898681640626,206.57940673828125Z" fill="url(#master_svg_4)" fill-opacity="1"/></g><g style="mix-blend-mode:passthrough"><path d="M67.96399971008302,202.4674072265625L16.753999710083008,202.4674072265625L16.753999710083008,218.9174072265625L67.96399971008302,218.9174072265625L67.96399971008302,202.4674072265625Z" fill="#E8EDF8" fill-opacity="1"/></g><g style="mix-blend-mode:passthrough"><path d="M29.082000625610352,202.4674072265625L23.708000625610353,218.7594072265625L17.54400062561035,218.7594072265625L22.91800062561035,202.4674072265625L29.082000625610352,202.4674072265625Z" fill="url(#master_svg_5)" fill-opacity="1"/></g><g style="mix-blend-mode:passthrough"><path d="M41.56900068664551,202.4674072265625L36.19500068664551,218.7594072265625L30.030000686645508,218.7594072265625L35.24600068664551,202.4674072265625L41.56900068664551,202.4674072265625Z" fill="url(#master_svg_6)" fill-opacity="1"/></g><g style="mix-blend-mode:passthrough"><path d="M54.05499829101562,202.4674072265625L48.68099829101563,218.7594072265625L42.516998291015625,218.7594072265625L47.732998291015626,202.4674072265625L54.05499829101562,202.4674072265625Z" fill="url(#master_svg_7)" fill-opacity="1"/></g><g style="mix-blend-mode:passthrough"><path d="M66.54200161743164,202.4674072265625L61.16800161743164,218.7594072265625L55.00400161743164,218.7594072265625L60.219001617431644,202.4674072265625L66.54200161743164,202.4674072265625Z" fill="url(#master_svg_8)" fill-opacity="1"/></g><g style="mix-blend-mode:passthrough"><path d="M188.51100158691406,63.90539898681641L188.51100158691406,44.607398986816406L190.51100158691406,44.607398986816406L190.51100158691406,63.90539898681641L188.51100158691406,63.90539898681641Z" fill="#BBC1CF" fill-opacity="1"/></g><g style="mix-blend-mode:passthrough"><path d="M189.59000390625,72.28839974975585C192.68800390625,72.28839974975585,195.20100390625,69.77439974975586,195.20100390625,66.67239974975585C195.20100390625,63.57139974975586,192.68800390625,61.05739974975586,189.59000390625,61.05739974975586C186.49100390625,61.05739974975586,183.97900390625,63.57139974975586,183.97900390625,66.67239974975585C183.97900390625,69.77439974975586,186.49100390625,72.28839974975585,189.59000390625,72.28839974975585Z" fill="#B9C0D0" fill-opacity="1"/></g><g style="mix-blend-mode:passthrough"><path d="M190.82699340820312,69.12439727783203L190.82699340820312,74.02839727783203L189.82699340820312,74.02839727783203L190.82699340820312,74.02839727783203Q190.82699340820312,74.99496727783203,191.72322340820313,75.29371727783203L191.40699340820314,76.24239727783203L191.68939340820313,75.28309727783203Q194.10988340820313,75.99564727783203,195.41249340820312,78.23013727783203Q196.72759340820312,80.48589727783204,196.17959340820312,83.09209727783204L196.17539340820312,83.11109727783203Q195.75549340820314,84.93249727783203,194.44619340820313,86.24259727783203Q193.1365934082031,87.55279727783203,191.31575340820314,87.97279727783203L191.09099340820313,86.99839727783203L191.33371340820312,87.96849727783203Q189.72267340820312,88.37159727783202,188.18347340820313,88.02309727783204Q186.72519340820313,87.69299727783203,185.56072340820313,86.74609727783204Q184.42562040820312,85.82309727783203,183.78850540820312,84.49469727783203Q183.13699340820312,83.13629727783203,183.13699340820312,81.62039727783203L185.13699340820312,81.62039727783203Q185.13699340820312,83.82379727783203,186.82251340820312,85.19439727783202Q188.55396340820312,86.60229727783204,190.8482734082031,86.02829727783202L190.86623340820313,86.02399727783202Q192.12778340820313,85.73299727783203,193.03157340820312,84.82869727783203Q193.93546340820313,83.92439727783203,194.22659340820312,82.66169727783203L195.20099340820312,82.88639727783203L194.22239340820312,82.68069727783202Q194.61189340820312,80.82789727783204,193.68470340820312,79.23739727783203Q192.78245340820314,77.68973727783204,191.1245934082031,77.20169727783203L191.09076340820312,77.19107727783204Q190.0622734082031,76.84824727783203,189.45615340820314,76.02483727783203Q188.82699340820312,75.17011727783203,188.82699340820312,74.02839727783203L188.82699340820312,74.02839727783203L188.82699340820312,69.12439727783203L190.82699340820312,69.12439727783203Z" fill="#BBC1CF" fill-opacity="1"/></g><g style="mix-blend-mode:passthrough"><path d="M326.0720002441406,235.36740112304688L265.6940002441406,235.36740112304688L265.6940002441406,240.27140112304687L326.0720002441406,240.27140112304687L326.0720002441406,235.36740112304688Z" fill="url(#master_svg_9)" fill-opacity="1"/></g><g style="mix-blend-mode:passthrough"><path d="M322.16200024414064,223.836404296875C321.76100024414063,222.601404296875,320.60900024414065,221.764404296875,319.3100002441406,221.764404296875L272.29900024414064,221.764404296875C270.99900024414063,221.764404296875,269.8480002441406,222.601404296875,269.44600024414063,223.836404296875L265.6940002441406,235.367404296875L325.91400024414065,235.367404296875L322.16200024414064,223.836404296875Z" fill="#CAD0DD" fill-opacity="1"/></g><g style="mix-blend-mode:passthrough"><path d="M344.7229986572265,46.39739993286133L171.80799865722656,46.39739993286133L171.09731065722656,44.69389993286133L187.85129865722655,27.768892932861327L188.55189865722656,27.472450932861328L344.71299865722654,25.890450932861327L345.7229986572265,26.890399932861328L345.7229986572265,45.39739993286133L344.7229986572265,46.39739993286133ZM344.7229986572265,44.39739993286133L344.7229986572265,45.39739993286133L343.7229986572265,45.39739993286133L343.7229986572265,26.890399932861328L344.7229986572265,26.890399932861328L344.7329986572266,27.89034893286133L188.57209865722655,29.472349932861327L188.56199865722655,28.47239993286133L189.27269865722656,29.175909932861327L172.51868665722657,46.100899932861324L171.80799865722656,45.39739993286133L171.80799865722656,44.39739993286133L344.7229986572265,44.39739993286133Z" fill="#BBC1CF" fill-opacity="1"/></g><g style="mix-blend-mode:passthrough"><path d="M245.56899645996094,45.3974006652832L245.56899645996094,28.472400665283203L246.56899645996094,28.472400665283203L247.22869645996093,29.2239646652832L227.94569645996094,46.149000665283204L226.28599645996093,45.3974006652832L226.28599645996093,28.472400665283203L227.28599645996093,28.472400665283203L227.94259645996095,29.226625665283205L208.50159645996092,46.151600665283205L206.84499645996095,45.3974006652832L206.84499645996095,28.472400665283203L207.84499645996095,28.472400665283203L208.50469645996094,29.2239646652832L189.22165645996094,46.149000665283204L187.56199645996094,45.3974006652832L187.56199645996094,29.105400665283202L188.56199645996094,29.105400665283202L187.56199645996094,29.105400665283202L187.56199645996094,28.472400665283203L189.56199645996094,28.472400665283203L189.56199645996094,29.105400665283202L189.56199645996094,29.105400665283202L189.56199645996094,45.3974006652832L188.56199645996094,45.3974006652832L187.90233645996094,44.645800665283204L207.18529645996094,27.720836665283205L208.84499645996095,28.472400665283203L208.84499645996095,45.3974006652832L207.84499645996095,45.3974006652832L207.18839645996093,44.6432006652832L226.62939645996093,27.7181756652832L228.28599645996093,28.472400665283203L228.28599645996093,45.3974006652832L227.28599645996093,45.3974006652832L226.62629645996094,44.645800665283204L245.90929645996093,27.720836665283205L247.56899645996094,28.472400665283203L247.56899645996094,45.3974006652832L245.56899645996094,45.3974006652832Z" fill="#BBC1CF" fill-opacity="1"/></g><g style="mix-blend-mode:passthrough"><path d="M323.0169982910156,45.39739936828613L323.0169982910156,27.207399368286133L325.0169982910156,27.207399368286133L325.0169982910156,45.39739936828613L323.0169982910156,45.39739936828613Z" fill="#BBC1CF" fill-opacity="1"/></g><g style="mix-blend-mode:passthrough"><path d="M285.952709765625,29.2239646652832L266.669669765625,46.149000665283204L265.010009765625,45.3974006652832L265.010009765625,28.472400665283203L267.010009765625,28.472400665283203L267.010009765625,45.3974006652832L266.010009765625,45.3974006652832L265.350349765625,44.645800665283204L284.633309765625,27.720836665283205L285.952709765625,29.2239646652832Z" fill="#BBC1CF" fill-opacity="1"/></g><g style="mix-blend-mode:passthrough"><path d="M284.2929992675781,45.3974006652832L284.2929992675781,28.472400665283203L286.2929992675781,28.472400665283203L286.2929992675781,45.3974006652832L284.2929992675781,45.3974006652832Z" fill="#BBC1CF" fill-opacity="1"/></g><g style="mix-blend-mode:passthrough"><path d="M306.15698876953127,214.854L285.45098876953125,214.854L284.45098876953125,213.854L284.45098876953125,9.6487L284.77198076953124,8.91457L295.20397876953126,-0.734131L296.56758876953126,-0.728941L306.84158876953126,8.91976L307.15698876953127,9.6487L307.15698876953127,213.854L306.15698876953127,214.854ZM306.15698876953127,212.854L306.15698876953127,213.854L305.15698876953127,213.854L305.15698876953127,9.6487L306.15698876953127,9.6487L305.4723887695312,10.3776L295.1984087695312,0.728941L295.88298876953127,0L296.56198876953124,0.734131L286.12999676953126,10.3828L285.45098876953125,9.6487L286.45098876953125,9.6487L286.45098876953125,213.854L285.45098876953125,213.854L285.45098876953125,212.854L306.15698876953127,212.854Z" fill="#BBC1CF" fill-opacity="1"/></g><g style="mix-blend-mode:passthrough"><path d="M306.15698876953127,11.757100105285645L285.45098876953125,11.757100105285645L285.45098876953125,9.757100105285645L306.15698876953127,9.757100105285645L306.15698876953127,11.757100105285645Z" fill="#BBC1CF" fill-opacity="1"/></g><g style="mix-blend-mode:passthrough"><path d="M306.15698876953127,63.95539855957031L285.45098876953125,63.95539855957031L285.45098876953125,61.95539855957031L306.15698876953127,61.95539855957031L306.15698876953127,63.95539855957031Z" fill="#BBC1CF" fill-opacity="1"/></g><g style="mix-blend-mode:passthrough"><path d="M306.15698876953127,80.72139739990234L285.45098876953125,80.72139739990234L285.45098876953125,78.72139739990234L306.15698876953127,78.72139739990234L306.15698876953127,80.72139739990234Z" fill="#BBC1CF" fill-opacity="1"/></g><g style="mix-blend-mode:passthrough"><path d="M306.15698876953127,97.33039855957031L285.45098876953125,97.33039855957031L285.45098876953125,95.33039855957031L306.15698876953127,95.33039855957031L306.15698876953127,97.33039855957031Z" fill="#BBC1CF" fill-opacity="1"/></g><g style="mix-blend-mode:passthrough"><path d="M306.15698876953127,114.09739685058594L285.45098876953125,114.09739685058594L285.45098876953125,112.09739685058594L306.15698876953127,112.09739685058594L306.15698876953127,114.09739685058594Z" fill="#BBC1CF" fill-opacity="1"/></g><g style="mix-blend-mode:passthrough"><path d="M306.15698876953127,130.8634033203125L285.45098876953125,130.8634033203125L285.45098876953125,128.8634033203125L306.15698876953127,128.8634033203125L306.15698876953127,130.8634033203125Z" fill="#BBC1CF" fill-opacity="1"/></g><g style="mix-blend-mode:passthrough"><path d="M306.15698876953127,147.63040161132812L285.45098876953125,147.63040161132812L285.45098876953125,145.63040161132812L306.15698876953127,145.63040161132812L306.15698876953127,147.63040161132812Z" fill="#BBC1CF" fill-opacity="1"/></g><g style="mix-blend-mode:passthrough"><path d="M306.15698876953127,164.2384033203125L285.45098876953125,164.2384033203125L285.45098876953125,162.2384033203125L306.15698876953127,162.2384033203125L306.15698876953127,164.2384033203125Z" fill="#BBC1CF" fill-opacity="1"/></g><g style="mix-blend-mode:passthrough"><path d="M306.15698876953127,181.00540161132812L285.45098876953125,181.00540161132812L285.45098876953125,179.00540161132812L306.15698876953127,179.00540161132812L306.15698876953127,181.00540161132812Z" fill="#BBC1CF" fill-opacity="1"/></g><g style="mix-blend-mode:passthrough"><path d="M306.15698876953127,197.77239990234375L285.45098876953125,197.77239990234375L285.45098876953125,195.77239990234375L306.15698876953127,195.77239990234375L306.15698876953127,197.77239990234375Z" fill="#BBC1CF" fill-opacity="1"/></g><g style="mix-blend-mode:passthrough"><path d="M339.1389971923828,27.8991L295.3573971923828,0.850741L295.88299719238285,0L296.1771971923828,0.955752L204.18816919238282,29.2692L203.5998251923828,27.3576L295.5887971923828,-0.955752L296.4085971923828,-0.850741L340.19099719238284,26.1977L339.1389971923828,27.8991Z" fill="#BBC1CF" fill-opacity="1"/></g><g style="mix-blend-mode:passthrough"><path d="M306.8075992675781,28.282825353027345L285.94359326757814,46.156799353027345L284.6424052675781,44.63799935302734L305.5063992675781,26.763973353027342L306.8075992675781,28.282825353027345Z" fill="#BBC1CF" fill-opacity="1"/></g><g style="mix-blend-mode:passthrough"><path d="M306.1641948730469,46.799401322509766L286.5652408730469,63.091399322509766L285.28674887304686,61.55339932250976L304.88579487304685,45.261397322509765L306.1641948730469,46.799401322509766Z" fill="#BBC1CF" fill-opacity="1"/></g><g style="mix-blend-mode:passthrough"><path d="M306.1499982910156,11.853656954223633L286.3919582910156,27.67109995422363L285.14203829101564,26.109699954223633L304.8999982910156,10.292342954223633L306.1499982910156,11.853656954223633Z" fill="#BBC1CF" fill-opacity="1"/></g><g style="mix-blend-mode:passthrough"><path d="M324.1149909667969,28.206860353027345L307.67697796679687,45.76389935302734L306.2170039667969,44.396899353027344L322.6549909667969,26.839938353027343L324.1149909667969,28.206860353027345Z" fill="#BBC1CF" fill-opacity="1"/></g><g style="mix-blend-mode:passthrough"><path d="M345.22340439453126,28.276103353027345L325.15036339453127,45.83309935302734L323.83364539453123,44.32769935302734L343.90660439453126,26.770695353027342L345.22340439453126,28.276103353027345Z" fill="#BBC1CF" fill-opacity="1"/></g><g style="mix-blend-mode:passthrough"><path d="M266.0454040283203,29.05906371923828L247.8684440283203,45.35109971923828L246.5335640283203,43.86169971923828L264.7106040283203,27.56973571923828L266.0454040283203,29.05906371923828Z" fill="#BBC1CF" fill-opacity="1"/></g><g style="mix-blend-mode:passthrough"><path d="M305.9942948730469,64.20817139770507L286.5533048730469,79.86820139770508L285.29868487304685,78.31060139770508L304.73969487304686,62.65063139770508L305.9942948730469,64.20817139770507Z" fill="#BBC1CF" fill-opacity="1"/></g><g style="mix-blend-mode:passthrough"><path d="M305.98649487304687,81.13938463476562L286.54551087304685,96.48240063476563L285.3064788730469,94.91240063476562L304.7474948730469,79.56941663476563L305.98649487304687,81.13938463476562Z" fill="#BBC1CF" fill-opacity="1"/></g><g style="mix-blend-mode:passthrough"><path d="M306.1453948730469,97.74671834375L286.5463568730469,113.24870234375L285.3056328730469,111.68010234375001L304.9045948730469,96.17808634375L306.1453948730469,97.74671834375Z" fill="#BBC1CF" fill-opacity="1"/></g><g style="mix-blend-mode:passthrough"><path d="M306.14139487304686,114.67581121679687L286.54241887304687,130.01879721679688L285.3095708730469,128.44399721679687L304.90859487304687,113.10098321679688L306.14139487304686,114.67581121679687Z" fill="#BBC1CF" fill-opacity="1"/></g><g style="mix-blend-mode:passthrough"><path d="M306.14139487304686,131.28381292578126L286.54241887304687,146.62679892578126L285.3095708730469,145.05199892578125L304.90859487304687,129.70898492578124L306.14139487304686,131.28381292578126Z" fill="#BBC1CF" fill-opacity="1"/></g><g style="mix-blend-mode:passthrough"><path d="M306.1453948730469,147.88871663476561L286.5463568730469,163.39070063476564L285.3056328730469,161.82210063476563L304.9045948730469,146.32008463476564L306.1453948730469,147.88871663476561Z" fill="#BBC1CF" fill-opacity="1"/></g><g style="mix-blend-mode:passthrough"><path d="M306.1453948730469,164.65571492578124L286.5463568730469,180.15769892578126L285.3056328730469,178.58909892578126L304.9045948730469,163.08708292578126L306.1453948730469,164.65571492578124Z" fill="#BBC1CF" fill-opacity="1"/></g><g style="mix-blend-mode:passthrough"><path d="M306.14529487304685,181.42273221679687L286.5463318730469,196.92369721679688L285.30565787304687,195.35509721679688L304.9046948730469,179.85406221679688L306.14529487304685,181.42273221679687Z" fill="#BBC1CF" fill-opacity="1"/></g><g style="mix-blend-mode:passthrough"><path d="M306.14139487304686,198.3508142685547L286.54241887304687,213.6938002685547L285.3095708730469,212.1190002685547L304.90859487304687,196.77598626855468L306.14139487304686,198.3508142685547Z" fill="#BBC1CF" fill-opacity="1"/></g><g style="mix-blend-mode:passthrough"><path d="M316.16898486328125,213.69740295410156L275.59698486328125,213.69740295410156C274.49298486328127,213.69740295410156,273.59698486328125,214.59340295410155,273.59698486328125,215.69740295410156L273.59698486328125,221.76440295410157L318.16898486328125,221.76440295410157L318.16898486328125,215.69740295410156C318.16898486328125,214.59340295410155,317.27398486328127,213.69740295410156,316.16898486328125,213.69740295410156Z" fill="url(#master_svg_a)" fill-opacity="1"/></g><g style="mix-blend-mode:passthrough"><path d="M120.59699987792969,180.48039813232424L100.99799987792969,180.48039813232424C99.41799987792969,180.48039813232424,98.15299987792969,179.21539813232422,98.15299987792969,177.6333981323242L98.15299987792969,102.02539813232421C98.15299987792969,100.44339813232422,99.41799987792969,99.17839813232422,100.99799987792969,99.17839813232422L120.59699987792969,99.17839813232422C122.1779998779297,99.17839813232422,123.44199987792969,100.44339813232422,123.44199987792969,102.02539813232421L123.44199987792969,177.6333981323242C123.44199987792969,179.21539813232422,122.1779998779297,180.48039813232424,120.59699987792969,180.48039813232424Z" fill="#E8EDF8" fill-opacity="1"/></g><g style="mix-blend-mode:passthrough"><path d="M110.79799975585938,114.36239837646484C113.41699975585938,114.36239837646484,115.53999975585937,112.23839837646484,115.53999975585937,109.61739837646485C115.53999975585937,106.99639837646484,113.41699975585938,104.87239837646484,110.79799975585938,104.87239837646484C108.17899975585938,104.87239837646484,106.05599975585938,106.99639837646484,106.05599975585938,109.61739837646485C106.05599975585938,112.23839837646484,108.17899975585938,114.36239837646484,110.79799975585938,114.36239837646484Z" fill="url(#master_svg_b)" fill-opacity="1"/></g><g style="mix-blend-mode:passthrough"><path d="M119.17499859619141,121.3223984375L102.42099859619141,121.3223984375C102.10499859619141,121.3223984375,101.9469985961914,121.1643984375,101.9469985961914,120.8483984375L101.9469985961914,119.5823984375C101.9469985961914,119.2663984375,102.10499859619141,119.1083984375,102.42099859619141,119.1083984375L119.0169985961914,119.1083984375C119.3329985961914,119.1083984375,119.4909985961914,119.2663984375,119.4909985961914,119.5823984375L119.4909985961914,120.8483984375C119.6489985961914,121.1643984375,119.3329985961914,121.3223984375,119.17499859619141,121.3223984375Z" fill="url(#master_svg_c)" fill-opacity="1"/></g><g style="mix-blend-mode:passthrough"><path d="M119.17499859619141,127.96540380859375L102.42099859619141,127.96540380859375C102.10499859619141,127.96540380859375,101.9469985961914,127.80740380859375,101.9469985961914,127.49140380859374L101.9469985961914,126.22540380859375C101.9469985961914,125.90940380859375,102.10499859619141,125.75140380859375,102.42099859619141,125.75140380859375L119.0169985961914,125.75140380859375C119.3329985961914,125.75140380859375,119.4909985961914,125.90940380859375,119.4909985961914,126.22540380859375L119.4909985961914,127.49140380859374C119.6489985961914,127.80740380859375,119.3329985961914,127.96540380859375,119.17499859619141,127.96540380859375Z" fill="url(#master_svg_d)" fill-opacity="1"/></g><g style="mix-blend-mode:passthrough"><path d="M119.17499859619141,134.60940100097656L102.42099859619141,134.60940100097656C102.10499859619141,134.60940100097656,101.9469985961914,134.45140100097657,101.9469985961914,134.13540100097657L101.9469985961914,132.86940100097655C101.9469985961914,132.55340100097655,102.10499859619141,132.39540100097656,102.42099859619141,132.39540100097656L119.0169985961914,132.39540100097656C119.3329985961914,132.39540100097656,119.4909985961914,132.55340100097655,119.4909985961914,132.86940100097655L119.4909985961914,134.13540100097657C119.6489985961914,134.45140100097657,119.3329985961914,134.60940100097656,119.17499859619141,134.60940100097656Z" fill="url(#master_svg_e)" fill-opacity="1"/></g><g style="mix-blend-mode:passthrough"><path d="M119.17499859619141,141.41039587402344L102.42099859619141,141.41039587402344C102.10499859619141,141.41039587402344,101.9469985961914,141.25239587402345,101.9469985961914,140.93639587402345L101.9469985961914,139.67039587402343C101.9469985961914,139.35439587402342,102.10499859619141,139.19639587402344,102.42099859619141,139.19639587402344L119.0169985961914,139.19639587402344C119.3329985961914,139.19639587402344,119.4909985961914,139.35439587402342,119.4909985961914,139.67039587402343L119.4909985961914,140.93639587402345C119.6489985961914,141.09439587402343,119.3329985961914,141.41039587402344,119.17499859619141,141.41039587402344Z" fill="url(#master_svg_f)" fill-opacity="1"/></g><g style="mix-blend-mode:passthrough"><path d="M119.17499859619141,148.0544012451172L102.42099859619141,148.0544012451172C102.10499859619141,148.0544012451172,101.9469985961914,147.89640124511718,101.9469985961914,147.5794012451172L101.9469985961914,146.31440124511718C101.9469985961914,145.99840124511718,102.10499859619141,145.8394012451172,102.42099859619141,145.8394012451172L119.0169985961914,145.8394012451172C119.3329985961914,145.8394012451172,119.4909985961914,145.99840124511718,119.4909985961914,146.31440124511718L119.4909985961914,147.5794012451172C119.6489985961914,147.7384012451172,119.3329985961914,148.0544012451172,119.17499859619141,148.0544012451172Z" fill="url(#master_svg_g)" fill-opacity="1"/></g><g style="mix-blend-mode:passthrough"><path d="M119.17499859619141,154.6973984375L102.42099859619141,154.6973984375C102.10499859619141,154.6973984375,101.9469985961914,154.5393984375,101.9469985961914,154.2233984375L101.9469985961914,152.9573984375C101.9469985961914,152.6413984375,102.10499859619141,152.4833984375,102.42099859619141,152.4833984375L119.0169985961914,152.4833984375C119.3329985961914,152.4833984375,119.4909985961914,152.6413984375,119.4909985961914,152.9573984375L119.4909985961914,154.2233984375C119.6489985961914,154.5393984375,119.3329985961914,154.6973984375,119.17499859619141,154.6973984375Z" fill="url(#master_svg_h)" fill-opacity="1"/></g><g style="mix-blend-mode:passthrough"><path d="M116.17200170898437,161.34140380859375L105.58200170898438,161.34140380859375C105.26600170898438,161.34140380859375,105.10800170898438,161.18340380859374,105.10800170898438,160.86640380859376L105.10800170898438,159.60140380859374C105.10800170898438,159.28440380859374,105.26600170898438,159.12640380859375,105.58200170898438,159.12640380859375L116.17200170898437,159.12640380859375C116.48800170898437,159.12640380859375,116.64600170898437,159.28440380859374,116.64600170898437,159.60140380859374L116.64600170898437,160.86640380859376C116.64600170898437,161.18340380859374,116.33000170898437,161.34140380859375,116.17200170898437,161.34140380859375Z" fill="url(#master_svg_i)" fill-opacity="1"/></g><g style="mix-blend-mode:passthrough"><path d="M179.5530050048828,169.09140014648438L137.3520050048828,169.09140014648438L137.3520050048828,171.46440014648437L179.5530050048828,171.46440014648437L179.5530050048828,169.09140014648438Z" fill="url(#master_svg_j)" fill-opacity="1"/></g><g style="mix-blend-mode:passthrough"><path d="M160.27000500488282,175.41839599609375L137.3520050048828,175.41839599609375L137.3520050048828,177.79139599609374L160.27000500488282,177.79139599609374L160.27000500488282,175.41839599609375Z" fill="url(#master_svg_k)" fill-opacity="1"/></g><g style="mix-blend-mode:passthrough"><path d="M230.28899743652343,169.09140014648438L188.08799743652344,169.09140014648438L188.08799743652344,171.46440014648437L230.28899743652343,171.46440014648437L230.28899743652343,169.09140014648438Z" fill="url(#master_svg_l)" fill-opacity="1"/></g><g style="mix-blend-mode:passthrough"><path d="M211.00599743652344,175.41839599609375L188.08799743652344,175.41839599609375L188.08799743652344,177.79139599609374L211.00599743652344,177.79139599609374L211.00599743652344,175.41839599609375Z" fill="url(#master_svg_m)" fill-opacity="1"/></g><g style="mix-blend-mode:passthrough"><path d="M218.13319523925782,102.31088833007813L192.3821952392578,87.40992833007813L192.3458952392578,87.38791833007812Q191.02799523925782,86.54872833007812,189.47839523925782,86.25615833007812Q187.86359523925782,85.95130433007813,186.2606952392578,86.29515833007812L186.24629523925782,86.29814833007812L152.78727123925782,92.96014833007813L152.3967192392578,90.99864833007813L185.8556952392578,84.33664933007813L186.05099523925782,85.31739733007812L185.84129523925782,84.33964233007812Q187.8383952392578,83.91120833007813,189.8493952392578,84.29088233007812Q191.77739523925783,84.65488233007812,193.42009523925782,85.70088033007812L192.8829952392578,86.54439833007812L193.3837952392578,85.67886233007812L219.1347952392578,100.57988833007812L218.13319523925782,102.31088833007813Z" fill="#BBC1CF" fill-opacity="1"/></g><g filter="url(#master_svg_n)" style="mix-blend-mode:passthrough"><path d="M218.26595883789062,172.09544450683592L133.51499883789063,159.29744450683594C130.88799883789062,158.94744450683595,129.13600283789063,156.49244450683594,129.48600243789062,153.86344450683595L138.06999883789064,92.68040450683594C138.41999883789063,90.05040450683593,140.87295883789062,88.29740050683594,143.49995883789063,88.64840060683593L228.2509588378906,101.44544450683594C230.87755883789063,101.79644450683594,232.6295588378906,104.25044450683593,232.27955883789062,106.88044450683594L223.69595883789063,168.06344450683594C223.34595883789063,170.51744450683594,220.89295883789063,172.44544450683594,218.26595883789062,172.09544450683592Z" fill="#FFFFFF" fill-opacity="1"/></g><g style="mix-blend-mode:passthrough"><path d="M215.48999875488283,165.13242758789062L139.73098875488282,153.2914275878906C137.58898875488282,153.0054275878906,136.1609937548828,151.0054275878906,136.4469934548828,148.86242758789064L143.4429887548828,98.99539758789062C143.7289887548828,96.85139758789063,145.72698875488283,95.42240058789062,147.86899875488282,95.70840038789062L223.62899875488282,107.55042758789062C225.7699987548828,107.83542758789062,227.1979987548828,109.83642758789063,226.9129987548828,111.97942758789063L219.9169987548828,161.84642758789062C219.6309987548828,163.84642758789062,217.63199875488283,165.41842758789062,215.48999875488283,165.13242758789062Z" fill="#EFF3FB" fill-opacity="1"/></g><g style="mix-blend-mode:passthrough"><path d="M262.849001953125,60.741399322509764L274.704001953125,72.60439932250976C275.494001953125,73.39539932250976,276.600001953125,73.86939932250976,277.549001953125,73.86939932250976L307.263001953125,73.86939932250976L307.263001953125,46.030399322509766L261.427001953125,46.030399322509766L261.427001953125,57.735399322509764C261.743001953125,59.00139932250977,262.059001953125,59.95039932250977,262.849001953125,60.741399322509764Z" fill="#B9C0D0" fill-opacity="1"/></g><g style="mix-blend-mode:passthrough"><path d="M289.59100341796875,58.667399017333985L301.50000341796874,58.667399017333985C302.05200341796876,58.667399017333985,302.50000341796874,58.219399017333984,302.50000341796874,57.667399017333985L302.50000341796874,51.600399017333984C302.50000341796874,51.048399017333985,302.05200341796876,50.600399017333984,301.50000341796874,50.600399017333984L289.59100341796875,50.600399017333984C289.03900341796873,50.600399017333984,288.59100341796875,51.048399017333985,288.59100341796875,51.600399017333984L288.59100341796875,57.667399017333985C288.59100341796875,58.219399017333984,289.03900341796873,58.667399017333985,289.59100341796875,58.667399017333985Z" fill="#FFFFFF" fill-opacity="1"/></g><g style="mix-blend-mode:passthrough"><path d="M271.6109924316406,58.667399017333985L283.5199924316406,58.667399017333985C284.07199243164064,58.667399017333985,284.5199924316406,58.219399017333984,284.5199924316406,57.667399017333985L284.5199924316406,51.600399017333984C284.5199924316406,51.048399017333985,284.07199243164064,50.600399017333984,283.5199924316406,50.600399017333984L271.6109924316406,50.600399017333984C271.0579924316406,50.600399017333984,270.6109924316406,51.048399017333985,270.6109924316406,51.600399017333984L270.6109924316406,57.667399017333985C270.6109924316406,58.219399017333984,271.0579924316406,58.667399017333985,271.6109924316406,58.667399017333985Z" fill="#FFFFFF" fill-opacity="1"/></g><g style="mix-blend-mode:passthrough"><path d="M389.418,242.08740234375L0,242.08740234375L0,239.08740234375L389.418,239.08740234375L389.418,242.08740234375Z" fill="#CDD6E1" fill-opacity="1"/></g><g style="mix-blend-mode:passthrough"><path d="M134.6560002441406,239.32239379882813L113.31900024414062,239.32239379882813L114.26700024414062,236.95039379882812L116.48000024414063,230.93939379882812L118.37600024414063,225.71939379882812L120.58900024414062,219.70839379882813L122.17000024414062,215.59639379882813C122.48600024414063,214.80539379882813,123.27600024414062,214.17239379882812,124.06700024414063,214.17239379882812C124.85700024414062,214.17239379882812,125.64700024414063,214.64739379882812,125.96300024414063,215.59639379882813L127.54400024414062,219.70839379882813L129.7570002441406,225.71939379882812L131.65300024414063,230.93939379882812L133.86600024414062,236.95039379882812L134.6560002441406,239.32239379882813Z" fill="#E8EDF8" fill-opacity="1"/></g><g style="mix-blend-mode:passthrough"><path d="M129.76299993896484,225.71940112304688L118.38899993896484,225.71940112304688L120.52699993896485,219.86740112304688L127.59499993896485,219.86740112304688L129.76299993896484,225.71940112304688Z" fill="url(#master_svg_o)" fill-opacity="1"/></g><g style="mix-blend-mode:passthrough"><path d="M133.85900213623046,236.9504073486328L114.26000213623047,236.9504073486328L116.47300213623046,230.9394073486328L131.64700213623047,230.9394073486328L133.85900213623046,236.9504073486328Z" fill="url(#master_svg_p)" fill-opacity="1"/></g><g style="mix-blend-mode:passthrough"><path d="M134.65600372314452,239.3234041748047L113.16100372314453,239.3234041748047C112.52800372314454,239.3234041748047,111.89600372314453,238.8484041748047,111.89600372314453,238.05740417480467C111.89600372314453,237.4254041748047,112.37000372314454,236.7924041748047,113.16100372314453,236.7924041748047L134.65600372314452,236.7924041748047C135.28900372314453,236.7924041748047,135.92100372314454,237.26640417480468,135.92100372314454,238.05740417480467C135.92100372314454,238.8484041748047,135.44700372314452,239.3234041748047,134.65600372314452,239.3234041748047Z" fill="#E8EDF8" fill-opacity="1"/></g><g style="mix-blend-mode:passthrough"><path d="M251.58699291992187,239.32239379882813L230.24899291992188,239.32239379882813L231.1979929199219,236.95039379882812L233.41099291992188,230.93939379882812L235.30699291992187,225.71939379882812L237.51999291992186,219.70839379882813L239.10099291992188,215.59639379882813C239.41699291992188,214.80539379882813,240.20699291992187,214.17239379882812,240.99699291992187,214.17239379882812C241.78799291992186,214.17239379882812,242.57799291992188,214.64739379882812,242.89399291992189,215.59639379882813L244.47499291992187,219.70839379882813L246.68699291992186,225.71939379882812L248.58399291992188,230.93939379882812L250.79699291992188,236.95039379882812L251.58699291992187,239.32239379882813Z" fill="#E8EDF8" fill-opacity="1"/></g><g style="mix-blend-mode:passthrough"><path d="M246.69300732421874,225.71940112304688L235.32000732421875,225.71940112304688L237.45700732421875,219.86740112304688L244.52500732421876,219.86740112304688L246.69300732421874,225.71940112304688Z" fill="url(#master_svg_q)" fill-opacity="1"/></g><g style="mix-blend-mode:passthrough"><path d="M250.7899942626953,236.9504073486328L231.1909942626953,236.9504073486328L233.4039942626953,230.9394073486328L248.5769942626953,230.9394073486328L250.7899942626953,236.9504073486328Z" fill="url(#master_svg_r)" fill-opacity="1"/></g><g style="mix-blend-mode:passthrough"><path d="M251.58699584960937,239.3234041748047L230.09099584960939,239.3234041748047C229.45899584960938,239.3234041748047,228.82699584960938,238.8484041748047,228.82699584960938,238.05740417480467C228.82699584960938,237.4254041748047,229.30099584960936,236.7924041748047,230.09099584960939,236.7924041748047L251.58699584960937,236.7924041748047C252.21899584960937,236.7924041748047,252.85199584960938,237.26640417480468,252.85199584960938,238.05740417480467C252.85199584960938,238.8484041748047,252.37799584960936,239.3234041748047,251.58699584960937,239.3234041748047Z" fill="#E8EDF8" fill-opacity="1"/></g><g style="mix-blend-mode:passthrough"><path d="M164.78199868652345,132.25840446777343C167.01999868652345,132.59840446777343,169.20099868652343,130.99140446777344,169.54099868652344,128.75240446777343C169.88099868652344,126.51240446777344,168.27499868652345,124.32940146777344,166.03799868652345,123.98940096777343C163.79999868652345,123.64940146777344,161.61799868652344,125.25640446777344,161.27799888652345,127.49540446777344C160.93799868652343,129.73540446777344,162.54399868652342,131.91840446777343,164.78199868652345,132.25840446777343Z" fill="#989FB0" fill-opacity="1"/></g><g style="mix-blend-mode:passthrough"><path d="M196.45600606933593,137.07540581054687C198.69400606933593,137.41540581054687,200.87600606933594,135.80840581054687,201.21600606933595,133.56940581054687C201.55600606933595,131.3294058105469,199.95000606933593,129.14640281054687,197.71200606933593,128.80640231054687C195.47400606933593,128.46640281054687,193.29300506933595,130.0734058105469,192.95300496933595,132.31240581054686C192.58700506933593,134.72440581054687,194.21900606933593,136.73540581054687,196.45600606933593,137.07540581054687Z" fill="#989FB0" fill-opacity="1"/></g><g style="mix-blend-mode:passthrough"><path d="M167.32500439453125,114.42040252685547L157.49200439453125,117.94940252685547L158.37300439453125,120.40940252685547L168.20700439453125,116.88040252685546L167.32500439453125,114.42040252685547Z" fill="#989FB0" fill-opacity="1"/></g><g style="mix-blend-mode:passthrough"><path d="M198.60899438476562,119.11139678955078L197.03799438476562,121.19839678955078L205.38099438476561,127.49039678955079L206.95299438476562,125.40339678955078L198.60899438476562,119.11139678955078Z" fill="#989FB0" fill-opacity="1"/></g><g style="mix-blend-mode:passthrough"><path d="M179.15400388671875,144.31440513183594C181.81600388671876,144.71840513183594,184.22000388671876,143.42740513183594,184.52400388671876,141.42940513183595C184.82700388671876,139.43140513183593,182.91500388671875,137.48340513183595,180.25300388671874,137.07840553183593C177.59100388671874,136.67340513183595,175.18700188671875,137.96540513183595,174.88400188671875,139.96340513183594C174.58000188671875,141.96140513183593,176.49200388671875,143.90940513183594,179.15400388671875,144.31440513183594Z" fill="#989FB0" fill-opacity="1"/></g><g style="mix-blend-mode:passthrough"><path d="M322.3490010986328,256.39439392089844L112.37300109863281,256.39439392089844L112.37300109863281,253.39439392089844L322.3490010986328,253.39439392089844L322.3490010986328,256.39439392089844Z" fill="#CDD6E1" fill-opacity="1"/></g><g style="mix-blend-mode:passthrough"><path d="M70.61199966430664,256.39439392089844L44.07699966430664,256.39439392089844L44.07699966430664,253.39439392089844L70.61199966430664,253.39439392089844L70.61199966430664,256.39439392089844Z" fill="#CDD6E1" fill-opacity="1"/></g></g></g></svg>