<svg xmlns="http://www.w3.org/2000/svg" xmlns:xlink="http://www.w3.org/1999/xlink" fill="none" version="1.1" width="142.27499389648438" height="105.69999694824219" viewBox="0 0 142.27499389648438 105.69999694824219"><defs><filter id="master_svg_0" filterUnits="userSpaceOnUse" color-interpolation-filters="sRGB" x="0.8740005493164062" y="14.049999237060547" width="139.73699951171875" height="109.17244720458984"><feFlood flood-opacity="0" result="BackgroundImageFix"/><feColorMatrix in="SourceAlpha" type="matrix" values="0 0 0 0 0 0 0 0 0 0 0 0 0 0 0 0 0 0 127 0"/><feOffset dy="11" dx="0"/><feGaussianBlur stdDeviation="11"/><feColorMatrix type="matrix" values="0 0 0 0 0.3960784375667572 0 0 0 0 0.47843137383461 0 0 0 0 0.5764706134796143 0 0 0 0.27000001072883606 0"/><feBlend mode="normal" in2="BackgroundImageFix" result="effect1_dropShadow"/><feBlend mode="normal" in="SourceGraphic" in2="effect1_dropShadow" result="shape"/></filter><linearGradient x1="0.4996841251850128" y1="-0.02316455729305744" x2="0.4996841251850128" y2="1.0107594728469849" id="master_svg_1"><stop offset="0%" stop-color="#FDFEFF" stop-opacity="1"/><stop offset="99.6399998664856%" stop-color="#ECF0F5" stop-opacity="1"/></linearGradient><linearGradient x1="0.9603288173675537" y1="0" x2="0.03222369775176048" y2="0.5" id="master_svg_2"><stop offset="0%" stop-color="#B0BACC" stop-opacity="1"/><stop offset="100%" stop-color="#969EAE" stop-opacity="1"/></linearGradient></defs><g style="mix-blend-mode:passthrough"><g><g style="mix-blend-mode:passthrough"><path d="M70.30000038146973,105.69999990463256C98.30000038146973,105.69999990463256,121.00000038146973,82.99999990463257,121.00000038146973,54.899999904632566C121.00000038146973,26.799999904632568,98.20000038146972,4.099999904632568,70.30000038146973,4.099999904632568C42.30000038146973,4.099999904632568,19.600000381469727,26.799999904632568,19.600000381469727,54.899999904632566C19.600000381469727,82.99999990463257,42.30000038146973,105.69999990463256,70.30000038146973,105.69999990463256Z" fill="#EAEEF9" fill-opacity="1"/></g><g style="mix-blend-mode:passthrough"><path d="M123.7000015258789,5.6C125.24600152587891,5.6,126.5000015258789,4.34,126.5000015258789,2.8C126.5000015258789,1.25,125.24600152587891,0,123.7000015258789,0C122.1530015258789,0,120.9000015258789,1.25,120.9000015258789,2.8C120.9000015258789,4.34,122.1530015258789,5.6,123.7000015258789,5.6Z" fill="#E7EBF6" fill-opacity="1"/></g><g style="mix-blend-mode:passthrough"><path d="M22.3,21.499999618530275C23.846,21.499999618530275,25.1,20.239999618530273,25.1,18.699999618530274C25.1,17.149999618530273,23.846,15.899999618530273,22.3,15.899999618530273C20.753,15.899999618530273,19.5,17.149999618530273,19.5,18.699999618530274C19.5,20.239999618530273,20.753,21.499999618530275,22.3,21.499999618530275Z" fill="#E7EBF6" fill-opacity="1"/></g><g style="mix-blend-mode:passthrough"><path d="M5.2,75.4999984741211C8.072,75.4999984741211,10.4,73.16999847412109,10.4,70.2999984741211C10.4,67.42999847412109,8.072,65.0999984741211,5.2,65.0999984741211C2.328,65.0999984741211,0,67.42999847412109,0,70.2999984741211C0,73.16999847412109,2.328,75.4999984741211,5.2,75.4999984741211Z" fill="#E7EBF6" fill-opacity="1"/></g><g filter="url(#master_svg_0)" style="mix-blend-mode:passthrough"><path d="M118.6110005493164,28.209999237060547L118.6110005493164,87.04999923706055C118.6110005493164,88.77999923706054,117.17200054931641,90.21999923706055,115.44600054931641,90.21999923706055L26.039000549316405,90.21999923706055C24.312000549316405,90.28999923706054,22.874000549316406,88.84999923706054,22.874000549316406,87.11999923706054L22.874000549316406,28.209999237060547C22.874000549316406,26.419999237060548,24.312000549316405,25.049999237060547,26.039000549316405,25.049999237060547L115.44600054931641,25.049999237060547C117.24400054931641,25.049999237060547,118.6110005493164,26.489999237060548,118.6110005493164,28.209999237060547Z" fill="url(#master_svg_1)" fill-opacity="1"/></g><g style="mix-blend-mode:passthrough"><path d="M118.6110005493164,28.209999237060547L118.6110005493164,32.74999923706055L22.874000549316406,32.74999923706055L22.874000549316406,28.209999237060547C22.874000549316406,26.419999237060548,24.312000549316405,25.049999237060547,26.039000549316405,25.049999237060547L115.44600054931641,25.049999237060547C117.24400054931641,25.049999237060547,118.6110005493164,26.489999237060548,118.6110005493164,28.209999237060547Z" fill="url(#master_svg_2)" fill-opacity="1"/></g><g style="mix-blend-mode:passthrough"><path d="M57.54299996948242,55.55000122070312C59.01299996948242,55.55000122070312,60.20499996948242,54.360001220703126,60.20499996948242,52.89000122070313C60.20499996948242,51.42000122070313,59.01299996948242,50.220001220703125,57.54299996948242,50.220001220703125C56.07399996948242,50.220001220703125,54.88199996948242,51.42000122070313,54.88199996948242,52.89000122070313C54.88199996948242,54.360001220703126,56.07399996948242,55.55000122070312,57.54299996948242,55.55000122070312Z" fill="#989FB0" fill-opacity="1"/></g><g style="mix-blend-mode:passthrough"><path d="M84.01299737548828,55.55000122070312C85.48299737548828,55.55000122070312,86.67399737548828,54.360001220703126,86.67399737548828,52.89000122070313C86.67399737548828,51.42000122070313,85.48299737548828,50.220001220703125,84.01299737548828,50.220001220703125C82.54299737548828,50.220001220703125,81.35199737548828,51.42000122070313,81.35199737548828,52.89000122070313C81.35199737548828,54.360001220703126,82.54299737548828,55.55000122070312,84.01299737548828,55.55000122070312Z" fill="#989FB0" fill-opacity="1"/></g><g style="mix-blend-mode:passthrough"><path d="M75.09399890136719,73.02999877929688L66.74999890136719,73.02999877929688C65.45599890136718,73.02999877929688,64.37699890136719,71.94999877929688,64.37699890136719,70.64999877929688C64.37699890136719,69.35999877929687,65.45599890136718,68.27999877929688,66.74999890136719,68.27999877929688L75.02199890136718,68.27999877929688C76.31699890136719,68.27999877929688,77.3959989013672,69.35999877929687,77.3959989013672,70.64999877929688C77.46799890136718,71.94999877929688,76.38899890136719,73.02999877929688,75.09399890136719,73.02999877929688Z" fill="#989FB0" fill-opacity="1"/></g><g style="mix-blend-mode:passthrough"><path d="M27.117999557495118,30.22999969482422C27.712999557495117,30.22999969482422,28.195999557495117,29.74999969482422,28.195999557495117,29.149999694824217C28.195999557495117,28.54999969482422,27.712999557495117,28.06999969482422,27.117999557495118,28.06999969482422C26.521999557495118,28.06999969482422,26.038999557495117,28.54999969482422,26.038999557495117,29.149999694824217C26.038999557495117,29.74999969482422,26.521999557495118,30.22999969482422,27.117999557495118,30.22999969482422Z" fill="#F9FAFB" fill-opacity="1"/></g><g style="mix-blend-mode:passthrough"><path d="M30.498000625610352,30.22999969482422C31.094000625610352,30.22999969482422,31.577000625610353,29.74999969482422,31.577000625610353,29.149999694824217C31.577000625610353,28.54999969482422,31.094000625610352,28.06999969482422,30.498000625610352,28.06999969482422C29.902000625610352,28.06999969482422,29.41900062561035,28.54999969482422,29.41900062561035,29.149999694824217C29.41900062561035,29.74999969482422,29.902000625610352,30.22999969482422,30.498000625610352,30.22999969482422Z" fill="#F9FAFB" fill-opacity="1"/></g><g style="mix-blend-mode:passthrough"><path d="M33.95100164794922,30.22999969482422C34.547001647949216,30.22999969482422,35.03000164794922,29.74999969482422,35.03000164794922,29.149999694824217C35.03000164794922,28.54999969482422,34.547001647949216,28.06999969482422,33.95100164794922,28.06999969482422C33.355001647949216,28.06999969482422,32.87200164794922,28.54999969482422,32.87200164794922,29.149999694824217C32.87200164794922,29.74999969482422,33.355001647949216,30.22999969482422,33.95100164794922,30.22999969482422Z" fill="#F9FAFB" fill-opacity="1"/></g><g style="mix-blend-mode:passthrough"><path d="M114.72699920654297,17.42999999523163C114.00699920654297,17.42999999523163,113.43199920654297,16.849999995231627,113.43199920654297,16.12999999523163L113.43199920654297,1.6699999952316285C113.43199920654297,0.9499999952316284,114.00699920654297,0.3799999952316284,114.72699920654297,0.3799999952316284C115.44599920654296,0.3799999952316284,116.02099920654297,0.9499999952316284,116.02099920654297,1.6699999952316285L116.02099920654297,16.12999999523163C116.02099920654297,16.849999995231627,115.44599920654296,17.42999999523163,114.72699920654297,17.42999999523163Z" fill="#989FB0" fill-opacity="1"/></g><g style="mix-blend-mode:passthrough"><path d="M125.22799682617188,28.499999084472655C125.22799682617188,27.779999084472657,125.80399682617187,27.209999084472656,126.52299682617188,27.209999084472656L140.98099682617186,27.209999084472656C141.69999682617188,27.209999084472656,142.27499682617187,27.779999084472657,142.27499682617187,28.499999084472655C142.27499682617187,29.219999084472654,141.69999682617188,29.799999084472656,140.98099682617186,29.799999084472656L126.52299682617188,29.799999084472656C125.80399682617187,29.799999084472656,125.22799682617188,29.219999084472654,125.22799682617188,28.499999084472655Z" fill="#989FB0" fill-opacity="1"/></g><g style="mix-blend-mode:passthrough"><path d="M124.07700280761719,19.15C123.57400280761719,18.65,123.57400280761719,17.79,124.07700280761719,17.28L134.36295280761718,7.07C134.8669528076172,6.56,135.7299528076172,6.56,136.23295280761718,7.07C136.7369528076172,7.57,136.7369528076172,8.43,136.23295280761718,8.94L126.01900280761718,19.15C125.44400280761718,19.66,124.58100280761718,19.66,124.07700280761719,19.15Z" fill="#989FB0" fill-opacity="1"/></g></g></g></svg>