<svg xmlns="http://www.w3.org/2000/svg" xmlns:xlink="http://www.w3.org/1999/xlink" fill="none" version="1.1" width="392" height="213.5" viewBox="0 0 392 213.5"><defs><filter id="master_svg_0" filterUnits="userSpaceOnUse" color-interpolation-filters="sRGB" x="180.49099731445312" y="20.556989669799805" width="101.81100082397461" height="80.83499145507812"><feFlood flood-opacity="0" result="BackgroundImageFix"/><feColorMatrix in="SourceAlpha" type="matrix" values="0 0 0 0 0 0 0 0 0 0 0 0 0 0 0 0 0 0 127 0"/><feOffset dy="11" dx="0"/><feGaussianBlur stdDeviation="11"/><feColorMatrix type="matrix" values="0 0 0 0 0.3960784375667572 0 0 0 0 0.47843137383461 0 0 0 0 0.5764706134796143 0 0 0 0.27000001072883606 0"/><feBlend mode="normal" in2="BackgroundImageFix" result="effect1_dropShadow"/><feBlend mode="normal" in="SourceGraphic" in2="effect1_dropShadow" result="shape"/></filter><linearGradient x1="0.4996841251850128" y1="-0.02316455729305744" x2="0.4996841251850128" y2="1.0107594728469849" id="master_svg_1"><stop offset="0%" stop-color="#FDFEFF" stop-opacity="1"/><stop offset="99.6399998664856%" stop-color="#ECF0F5" stop-opacity="1"/></linearGradient><linearGradient x1="-0.053193528205156326" y1="-0.1076166108250618" x2="0.3887293040752411" y2="0.3806377053260803" id="master_svg_2"><stop offset="0%" stop-color="#BCCBE1" stop-opacity="1"/><stop offset="99.41999912261963%" stop-color="#FFFFFF" stop-opacity="0"/></linearGradient><linearGradient x1="-0.046832550317049026" y1="0.27057358622550964" x2="0.34539341926574707" y2="0.42529138922691345" id="master_svg_3"><stop offset="0%" stop-color="#E2E8F0" stop-opacity="1"/><stop offset="99.41999912261963%" stop-color="#FFFFFF" stop-opacity="0"/></linearGradient><filter id="master_svg_4" filterUnits="userSpaceOnUse" color-interpolation-filters="sRGB" x="104.00800323486328" y="45.30860137939453" width="87.57600021362305" height="71.7646427154541"><feFlood flood-opacity="0" result="BackgroundImageFix"/><feColorMatrix in="SourceAlpha" type="matrix" values="0 0 0 0 0 0 0 0 0 0 0 0 0 0 0 0 0 0 127 0"/><feOffset dy="11" dx="0"/><feGaussianBlur stdDeviation="11"/><feColorMatrix type="matrix" values="0 0 0 0 0.3960784375667572 0 0 0 0 0.47843137383461 0 0 0 0 0.5764706134796143 0 0 0 0.27000001072883606 0"/><feBlend mode="normal" in2="BackgroundImageFix" result="effect1_dropShadow"/><feBlend mode="normal" in="SourceGraphic" in2="effect1_dropShadow" result="shape"/></filter><linearGradient x1="0.4996841251850128" y1="-0.02316455729305744" x2="0.4996841251850128" y2="1.0107594728469849" id="master_svg_5"><stop offset="0%" stop-color="#FDFEFF" stop-opacity="1"/><stop offset="99.6399998664856%" stop-color="#ECF0F5" stop-opacity="1"/></linearGradient><linearGradient x1="-0.053230006247758865" y1="-0.10764110833406448" x2="0.38874420523643494" y2="0.3806476294994354" id="master_svg_6"><stop offset="0%" stop-color="#BCCBE1" stop-opacity="1"/><stop offset="99.41999912261963%" stop-color="#FFFFFF" stop-opacity="0"/></linearGradient><linearGradient x1="-0.04682202637195587" y1="0.27055826783180237" x2="0.34538382291793823" y2="0.42530137300491333" id="master_svg_7"><stop offset="0%" stop-color="#E2E8F0" stop-opacity="1"/><stop offset="99.41999912261963%" stop-color="#FFFFFF" stop-opacity="0"/></linearGradient></defs><g style="mix-blend-mode:passthrough"><g><g style="mix-blend-mode:passthrough"><path d="M99.34799960327149,163.6119999694824C141.8089996032715,163.6119999694824,176.23099960327147,129.28299996948243,176.23099960327147,86.93499996948242C176.23099960327147,44.58699996948242,141.8089996032715,10.256999969482422,99.34799960327149,10.256999969482422C56.886999603271484,10.256999969482422,22.465999603271484,44.58699996948242,22.465999603271484,86.93499996948242C22.465999603271484,129.28299996948243,56.886999603271484,163.6119999694824,99.34799960327149,163.6119999694824Z" fill="#EFF3FA" fill-opacity="1"/></g><g style="mix-blend-mode:passthrough"><path d="M380.3179998550415,171.081L15.376999855041504,171.081L72.1899998550415,95.001L96.5529998550415,62.736L117.8199998550415,85.74L121.91399985504151,90.121L167.6439998550415,26.987L187.2139998550415,0L202.4899998550415,22.207L254.5109998550415,97.789L275.4789998550415,73.889L286.16199985504153,61.641L295.2479998550415,72.495L380.3179998550415,171.081Z" fill="#D9E0EC" fill-opacity="1"/></g><g style="mix-blend-mode:passthrough"><path d="M96.5529998550415,62.73699951171875L95.55399985504151,171.08099951171874L15.376999855041504,171.08099951171874L72.1899998550415,95.00099951171876L96.5529998550415,62.73699951171875Z" fill="#E8EDF8" fill-opacity="1"/></g><g style="mix-blend-mode:passthrough"><path d="M187.21400146484376,0L183.91900146484375,159.729L121.91400146484375,90.121L187.21400146484376,0Z" fill="#E8EDF8" fill-opacity="1"/></g><g style="mix-blend-mode:passthrough"><path d="M288.05900158691406,155.44699884033201L254.51100158691406,97.78899884033203L286.1620015869141,61.64099884033203L288.05900158691406,155.44699884033201Z" fill="#E8EDF8" fill-opacity="1"/></g><g style="mix-blend-mode:passthrough"><path d="M392,172.58099365234375L380.318,172.58099365234375L380.318,171.08099365234375L380.318,172.58099365234375L95.554,172.58099365234375L95.554,171.08099365234375L95.554,172.58099365234375L0,172.58099365234375L0,169.58099365234375L95.554,169.58099365234375L95.554,169.58099365234375L380.318,169.58099365234375L380.318,169.58099365234375L392,169.58099365234375L392,172.58099365234375Z" fill="#CDD6E1" fill-opacity="1"/></g><g style="mix-blend-mode:passthrough"><path d="M231.44600671386718,188.71299743652344L206.0850067138672,188.71299743652344L206.0850067138672,185.71299743652344L231.44600671386718,185.71299743652344L231.44600671386718,188.71299743652344Z" fill="#CDD6E1" fill-opacity="1"/></g><g style="mix-blend-mode:passthrough"><path d="M301.33899682617186,188.71299743652344L275.9779968261719,188.71299743652344L275.9779968261719,185.71299743652344L301.33899682617186,185.71299743652344L301.33899682617186,188.71299743652344Z" fill="#CDD6E1" fill-opacity="1"/></g><g style="mix-blend-mode:passthrough"><path d="M265.89301416015627,188.71299743652344L260.50201416015625,188.71299743652344L260.50201416015625,185.71299743652344L265.89301416015627,185.71299743652344L265.89301416015627,188.71299743652344Z" fill="#CDD6E1" fill-opacity="1"/></g><g style="mix-blend-mode:passthrough"><path d="M182.91999810791015,188.71299743652344L92.05899810791016,188.71299743652344L92.05899810791016,185.71299743652344L182.91999810791015,185.71299743652344L182.91999810791015,188.71299743652344Z" fill="#CDD6E1" fill-opacity="1"/></g><g style="mix-blend-mode:passthrough"><path d="M65.20099850463868,188.71299743652344L53.71799850463867,188.71299743652344L53.71799850463867,185.71299743652344L65.20099850463868,185.71299743652344L65.20099850463868,188.71299743652344Z" fill="#CDD6E1" fill-opacity="1"/></g><g style="mix-blend-mode:passthrough"><path d="M377.5220144042969,188.71299743652344L345.5710144042969,188.71299743652344L345.5710144042969,185.71299743652344L377.5220144042969,185.71299743652344L377.5220144042969,188.71299743652344Z" fill="#CDD6E1" fill-opacity="1"/></g><g style="mix-blend-mode:passthrough"><path d="M36.34499981689453,188.71299743652344L5.291999816894531,188.71299743652344L5.291999816894531,185.71299743652344L36.34499981689453,185.71299743652344L36.34499981689453,188.71299743652344Z" fill="#CDD6E1" fill-opacity="1"/></g><g style="mix-blend-mode:passthrough"><path d="M130.40100030517578,202.156005859375L30.05500030517578,202.156005859375L30.05500030517578,199.156005859375L130.40100030517578,199.156005859375L130.40100030517578,202.156005859375Z" fill="#CDD6E1" fill-opacity="1"/></g><g style="mix-blend-mode:passthrough"><path d="M260.5020067138672,202.156005859375L189.7100067138672,202.156005859375L189.7100067138672,199.156005859375L260.5020067138672,199.156005859375L260.5020067138672,202.156005859375Z" fill="#CDD6E1" fill-opacity="1"/></g><g style="mix-blend-mode:passthrough"><path d="M367.7380144042969,202.156005859375L296.9460144042969,202.156005859375L296.9460144042969,199.156005859375L367.7380144042969,199.156005859375L367.7380144042969,202.156005859375Z" fill="#CDD6E1" fill-opacity="1"/></g><g style="mix-blend-mode:passthrough"><path d="M175.63099877929687,202.156005859375L160.15499877929688,202.156005859375L160.15499877929688,199.156005859375L175.63099877929687,199.156005859375L175.63099877929687,202.156005859375Z" fill="#CDD6E1" fill-opacity="1"/></g><g style="mix-blend-mode:passthrough"><path d="M324.3039945068359,215.5L238.63499450683594,215.5L238.63499450683594,212.5L324.3039945068359,212.5L324.3039945068359,215.5Z" fill="#CDD6E1" fill-opacity="1"/></g><g style="mix-blend-mode:passthrough"><path d="M206.08499914550782,215.5L149.5709991455078,215.5L149.5709991455078,212.5L206.08499914550782,212.5L206.08499914550782,215.5Z" fill="#CDD6E1" fill-opacity="1"/></g><g style="mix-blend-mode:passthrough"><path d="M130.4009989013672,215.5L113.62699890136719,215.5L113.62699890136719,212.5L130.4009989013672,212.5L130.4009989013672,215.5Z" fill="#CDD6E1" fill-opacity="1"/></g><g style="mix-blend-mode:passthrough"><path d="M88.06599935913086,215.5L51.02199935913086,215.5L51.02199935913086,212.5L88.06599935913086,212.5L88.06599935913086,215.5Z" fill="#CDD6E1" fill-opacity="1"/></g><g style="mix-blend-mode:passthrough"><path d="M133.29600280761719,145.28899932861327C133.29600280761719,151.56299932861327,128.2040028076172,154.35099932861328,122.01400280761719,154.35099932861328C115.82300280761719,154.35099932861328,110.73100280761719,151.56299932861327,110.73100280761719,145.28899932861327C110.73100280761719,139.01599932861328,122.01400280761719,100.27899932861328,122.01400280761719,100.27899932861328C122.01400280761719,100.27899932861328,133.29600280761719,139.1149993286133,133.29600280761719,145.28899932861327Z" fill="#FFFFFF" fill-opacity="1"/></g><g style="mix-blend-mode:passthrough"><path d="M120.91400146484375,169.88600671386718L120.91400146484375,134.3350067138672L122.91400146484375,134.3350067138672L122.91400146484375,169.88600671386718L120.91400146484375,169.88600671386718Z" fill="#B9C0D0" fill-opacity="1"/></g><g style="mix-blend-mode:passthrough"><path d="M126.67599146484375,137.5682639482422L122.58299646484375,141.25226694824218L121.24500646484375,139.7657269482422L125.33801146484375,136.08172994824218L126.67599146484375,137.5682639482422Z" fill="#B9C0D0" fill-opacity="1"/></g><g style="mix-blend-mode:passthrough"><path d="M121.15021262451172,149.6194659814453L115.25920962451171,142.64846698144532L116.78679562451173,141.3575449814453L122.67779262451172,148.3285459814453L121.15021262451172,149.6194659814453Z" fill="#B9C0D0" fill-opacity="1"/></g><g style="mix-blend-mode:passthrough"><path d="M234.74099475097657,142.50100256347656C234.74099475097657,149.47200256347656,229.04999475097657,152.55900256347655,222.15999475097655,152.55900256347655C215.17099475097658,152.55900256347655,209.57899475097656,149.47200256347656,209.57899475097656,142.50100256347656C209.57899475097656,135.53000256347656,222.15999475097655,92.41200256347656,222.15999475097655,92.41200256347656C222.15999475097655,92.41200256347656,234.74099475097657,135.63000256347658,234.74099475097657,142.50100256347656Z" fill="#FFFFFF" fill-opacity="1"/></g><g style="mix-blend-mode:passthrough"><path d="M221.16000366210938,169.8859989013672L221.16000366210938,130.2519989013672L223.16000366210938,130.2519989013672L223.16000366210938,169.8859989013672L221.16000366210938,169.8859989013672Z" fill="#B9C0D0" fill-opacity="1"/></g><g style="mix-blend-mode:passthrough"><path d="M227.33432366210937,133.77298636621094L222.84132266210938,137.95499036621095L221.47868466210937,136.49101036621093L225.97168366210937,132.30901436621093L227.33432366210937,133.77298636621094Z" fill="#B9C0D0" fill-opacity="1"/></g><g style="mix-blend-mode:passthrough"><path d="M221.39342732421875,147.32615134277344L214.80342632421875,139.45914834277343L216.33658832421875,138.17485434277344L222.92658732421876,146.04185134277344L221.39342732421875,147.32615134277344Z" fill="#B9C0D0" fill-opacity="1"/></g><g style="mix-blend-mode:passthrough"><path d="M275.678001953125,153.15600061035155C275.678001953125,157.43800061035157,272.184001953125,159.33000061035156,267.990001953125,159.33000061035156C263.697001953125,159.33000061035156,260.302001953125,157.43800061035157,260.302001953125,153.15600061035155C260.302001953125,148.87400061035157,267.990001953125,122.48500061035156,267.990001953125,122.48500061035156C267.990001953125,122.48500061035156,275.678001953125,148.87400061035157,275.678001953125,153.15600061035155Z" fill="#FFFFFF" fill-opacity="1"/></g><g style="mix-blend-mode:passthrough"><path d="M266.8900146484375,169.88599645996095L266.8900146484375,145.68699645996094L268.8900146484375,145.68699645996094L268.8900146484375,169.88599645996095L266.8900146484375,169.88599645996095Z" fill="#B9C0D0" fill-opacity="1"/></g><g style="mix-blend-mode:passthrough"><path d="M271.3509246484375,148.12791970410157L268.5549256484375,150.61691670410156L267.2251036484375,149.12307670410155L270.0211046484375,146.63407370410155L271.3509246484375,148.12791970410157Z" fill="#B9C0D0" fill-opacity="1"/></g><g style="mix-blend-mode:passthrough"><path d="M267.12261609375,156.28718731445312L263.12861809375,151.50719131445314L264.66337409375,150.2248033144531L268.65737609375,155.00480731445313L267.12261609375,156.28718731445312Z" fill="#B9C0D0" fill-opacity="1"/></g><g style="mix-blend-mode:passthrough"><path d="M316.91498901367186,148.37600134277343C316.91498901367186,153.85300134277344,312.5219890136719,156.24300134277343,307.02998901367187,156.24300134277343C301.5389890136719,156.24300134277343,297.1449890136719,153.85300134277344,297.1449890136719,148.37600134277343C297.1449890136719,142.89900134277343,307.02998901367187,108.94200134277344,307.02998901367187,108.94200134277344C307.02998901367187,108.94200134277344,316.91498901367186,142.89900134277343,316.91498901367186,148.37600134277343Z" fill="#FFFFFF" fill-opacity="1"/></g><g style="mix-blend-mode:passthrough"><path d="M306.0299987792969,169.88599523925782L306.0299987792969,138.7169952392578L308.0299987792969,138.7169952392578L308.0299987792969,169.88599523925782L306.0299987792969,169.88599523925782Z" fill="#B9C0D0" fill-opacity="1"/></g><g style="mix-blend-mode:passthrough"><path d="M311.19867877929687,141.6470257607422L307.70368177929686,144.83302476074218L306.3563157792969,143.35498476074218L309.8513187792969,140.16898376074218L311.19867877929687,141.6470257607422Z" fill="#B9C0D0" fill-opacity="1"/></g><g style="mix-blend-mode:passthrough"><path d="M306.2646626953125,152.20662756835938L301.0726646953125,146.03262356835938L302.6033606953125,144.74539156835937L307.7953626953125,150.91938756835938L306.2646626953125,152.20662756835938Z" fill="#B9C0D0" fill-opacity="1"/></g><g style="mix-blend-mode:passthrough"><path d="M122.811998046875,90.71899951171875L105.638998046875,92.21299951171875L97.650998046875,100.37799951171874L88.065998046875,98.68499951171876L72.189998046875,108.54399951171875L67.197998046875,102.07099951171875L96.851998046875,62.73699951171875L122.811998046875,90.71899951171875Z" fill="#FFFFFF" fill-opacity="0.800000011920929"/></g><g style="mix-blend-mode:passthrough"><path d="M210.27900268554689,33.459L202.1910026855469,31.667L193.90400268554689,35.551L187.21400268554686,33.858L180.82400268554687,45.21L170.8390026855469,40.53L159.65600268554687,45.21L157.75900268554688,40.829L187.21400268554686,0L210.27900268554689,33.459Z" fill="#FFFFFF" fill-opacity="0.6000000238418579"/></g><g style="mix-blend-mode:passthrough"><path d="M300.5399873046875,78.27099884033203L292.1529873046875,84.84299884033203L284.3649873046875,80.56199884033202L273.3819873046875,86.93499884033203L270.2869873046875,80.26299884033203L286.5619873046875,61.64099884033203L300.5399873046875,78.27099884033203Z" fill="#FFFFFF" fill-opacity="0.6000000238418579"/></g><g style="mix-blend-mode:passthrough"><path d="M88.96400244140625,33.2600035168457C90.56200244140625,32.862003516845704,92.05900244140625,32.7620035168457,93.65700244140625,32.7620035168457C95.15500244140625,32.7620035168457,96.75200244140625,32.862003516845704,98.25000244140625,33.0610035168457C99.74800244140624,33.2600035168457,101.34500244140625,33.6590035168457,102.84300244140626,34.3560035168457C104.34100244140625,35.053003516845706,105.83800244140625,36.0490035168457,106.73700244140625,37.742003516845706L105.04000244140624,37.343003516845705L106.83700244140624,35.94900351684571C107.53600244140625,35.551003516845704,108.13500244140624,35.053003516845706,108.73400244140625,34.654003516845705C110.03200244140625,33.858003516845706,111.43000244140624,33.1610035168457,112.92800244140625,32.663003516845706C114.42500244140625,32.164999516845704,115.92300244140625,31.766999516845704,117.42100244140624,31.566999616845703C119.01800244140625,31.467999616845702,120.51600244140624,31.467999616845702,122.11300244140625,31.865999516845704C122.41300244140625,31.965999516845702,122.51300244140626,32.264999516845705,122.41300244140625,32.4639995168457C122.31300244140624,32.7620035168457,122.11300244140625,32.862003516845704,121.81400244140625,32.7620035168457L121.71400244140625,32.7620035168457C120.41600244140625,32.4639995168457,118.91800244140626,32.563003516845704,117.52000244140625,32.7620035168457C116.12300244140624,32.962003516845705,114.72500244140625,33.4600035168457,113.42700244140624,34.057003516845704C112.12900244140624,34.6550035168457,110.93100244140625,35.352003516845706,109.73200244140625,36.148003516845705C109.13300244140625,36.547003516845706,108.53400244140624,37.044003516845706,108.03500244140625,37.44300351684571L106.43700244140625,38.837003516845705C105.93800244140625,39.2350035168457,105.33900244140625,39.136003516845705,104.94000244140625,38.737003516845704L104.84000244140626,38.837003516845705L104.74000244140625,38.6380035168457C104.34100244140625,37.5420035168457,103.24200244140624,36.6460035168457,102.04400244140625,36.0490035168457C100.84600244140626,35.4510035168457,99.44800244140625,34.953003516845705,97.95000244140626,34.654003516845705C96.55300244140625,34.3560035168457,95.05500244140624,34.157003516845705,93.55700244140625,34.057003516845704C92.05900244140625,33.9570035168457,90.56200244140625,33.9570035168457,89.26400244140625,34.2560035168457L89.16400244140625,34.2560035168457C88.86400244140626,34.3560035168457,88.66500244140624,34.157003516845705,88.56500244140625,33.858003516845706C88.56500244140625,33.559003516845706,88.66500244140624,33.2600035168457,88.96400244140625,33.2600035168457Z" fill="#989FB0" fill-opacity="1"/></g><g style="mix-blend-mode:passthrough"><path d="M44.632001708984376,60.54600091064453C46.230001708984375,60.14700091064453,47.727001708984375,60.04800091064453,49.325001708984374,60.04800091064453C50.82300170898438,60.04800091064453,52.42000170898437,60.14700091064453,53.91800170898438,60.346000910644534C55.416001708984375,60.54600091064453,57.013001708984376,60.94400091064453,58.511001708984374,61.64100091064453C60.00900170898437,62.33800091064453,61.50600170898437,63.334000910644534,62.40500170898437,65.02700091064453L60.708001708984376,64.62800091064453L62.50500170898437,63.23400091064453C63.20400170898438,62.83600091064453,63.803001708984375,62.33800091064453,64.40200170898437,61.94000091064453C65.70000170898437,61.14300091064453,67.09800170898437,60.44600091064453,68.59500170898437,59.94800091064453C70.09300170898437,59.45000091064453,71.59100170898438,59.05200091064453,73.08900170898437,58.85300071064453C74.68600170898438,58.75300071064453,76.18400170898437,58.75300071064453,77.78100170898438,59.151000910644534C78.08100170898437,59.25100091064453,78.18100170898438,59.550000910644535,78.08100170898437,59.74900091064453C77.98100170898437,60.04800091064453,77.78100170898438,60.14700091064453,77.48200170898437,60.04800091064453L77.38200170898438,60.04800091064453C76.08400170898437,59.74900091064453,74.58600170898438,59.84800091064453,73.18800170898437,60.04800091064453C71.79100170898437,60.24700091064453,70.39300170898437,60.74500091064453,69.09500170898437,61.34200091064453C67.79700170898437,61.94000091064453,66.59900170898437,62.63700091064453,65.40000170898438,63.43300091064453C64.80100170898437,63.83200091064453,64.20200170898437,64.33000091064453,63.703001708984374,64.72800091064452L62.105001708984375,66.12200091064453C61.60600170898438,66.52000091064453,61.007001708984376,66.42100091064454,60.608001708984375,66.02200091064454L60.508001708984374,65.92300091064453L60.40800170898437,65.72400091064453C60.00900170898437,64.62800091064453,58.910001708984375,63.73200091064453,57.712001708984374,63.13500091064453C56.514001708984374,62.53700091064453,55.11600170898437,62.03900091064453,53.61800170898437,61.74000091064453C52.221001708984375,61.44200091064453,50.72300170898438,61.24300091064453,49.22500170898437,61.14300091064453C47.727001708984375,61.04300091064453,46.230001708984375,61.04300091064453,44.93200170898437,61.34200091064453L44.83200170898437,61.34200091064453C44.532001708984374,61.44200091064453,44.333001708984376,61.24300091064453,44.233001708984375,60.94400091064453C44.233001708984375,60.84400091064453,44.43200170898437,60.54600091064453,44.632001708984376,60.54600091064453Z" fill="#989FB0" fill-opacity="1"/></g><g style="mix-blend-mode:passthrough"><path d="M99.74799957275391,56.66200394409179C101.3449995727539,56.2640039440918,102.84299957275391,56.164003944091796,104.4399995727539,56.164003944091796C105.93799957275391,56.164003944091796,107.53599957275391,56.2640039440918,109.03299957275391,56.463003944091795C110.5309995727539,56.66200394409179,112.12899957275391,57.0600039440918,113.62599957275391,57.7570039440918C115.1239995727539,58.454003944091795,116.62199957275391,59.4500039440918,117.5199995727539,61.143003944091795L115.8229995727539,60.7450039440918L117.6199995727539,59.3510039440918C118.31899957275391,58.9520039440918,118.9179995727539,58.454003944091795,119.5169995727539,58.0560039440918C120.8149995727539,57.259003944091795,122.2129995727539,56.5620039440918,123.7109995727539,56.064003944091795C125.20899957275391,55.5669999440918,126.70599957275391,55.1679999440918,128.2039995727539,54.9690000440918C129.8019995727539,54.870000044091796,131.2989995727539,54.870000044091796,132.8969995727539,55.2679999440918C133.19599957275392,55.366999944091795,133.2959995727539,55.665999944091794,133.19599957275392,55.8649999440918C133.0969995727539,56.164003944091796,132.8969995727539,56.2640039440918,132.5969995727539,56.164003944091796L132.4979995727539,56.164003944091796C131.1989995727539,55.8649999440918,129.7019995727539,55.9650039440918,128.3039995727539,56.164003944091796C126.9059995727539,56.363003944091794,125.5079995727539,56.8610039440918,124.2099995727539,57.4590039440918C122.9119995727539,58.0560039440918,121.7139995727539,58.753003944091795,120.51599957275391,59.5500039440918C119.91699957275391,59.948003944091795,119.3179995727539,60.4460039440918,118.8179995727539,60.844003944091796L117.22099957275391,62.2390039440918C116.7219995727539,62.637003944091795,116.12299957275391,62.53700394409179,115.7229995727539,62.1390039440918L115.62299957275391,62.039003944091796L115.5229995727539,61.8400039440918C115.1239995727539,60.7450039440918,114.0259995727539,59.8490039440918,112.82799957275391,59.2510039440918C111.62899957275391,58.6540039440918,110.2319995727539,58.15600394409179,108.7339995727539,57.857003944091794C107.3359995727539,57.558003944091794,105.8379995727539,57.359003944091796,104.3409995727539,57.259003944091795C102.84299957275391,57.1600039440918,101.3449995727539,57.1600039440918,100.0469995727539,57.4590039440918L99.94699957275391,57.4590039440918C99.6479995727539,57.558003944091794,99.4479995727539,57.359003944091796,99.3479995727539,57.0600039440918C99.3479995727539,56.9610039440918,99.4479995727539,56.66200394409179,99.74799957275391,56.66200394409179Z" fill="#989FB0" fill-opacity="1"/></g><g filter="url(#master_svg_0)" style="mix-blend-mode:passthrough"><path d="M260.3019973144531,58.0239896697998C260.3019973144531,63.754989669799805,255.6549973144531,68.3889896697998,249.85899731445312,68.3889896697998C249.75899731445313,68.3889896697998,248.9099973144531,68.3889896697998,242.66399731445313,68.3889896697998C238.31699731445312,68.3889896697998,231.37099731445312,68.3889896697998,220.27899731445314,68.3889896697998L214.9819973144531,68.3889896697998C208.03699731445312,68.5389896697998,202.49099731445312,63.00698966979981,202.49099731445312,56.3289896697998C202.49099731445312,49.601989669799806,208.08699731445313,44.0209896697998,215.13199731445312,44.3689896697998C221.17799731445314,25.531999669799806,248.85999731445312,28.172999669799804,251.2079973144531,47.657989669799804C256.4049973144531,48.3059896697998,260.3019973144531,52.69198966979981,260.3019973144531,58.0239896697998Z" fill="url(#master_svg_1)" fill-opacity="1"/></g><g style="mix-blend-mode:passthrough"><path d="M249.85900036621095,68.38900094604492C255.60500036621093,68.38900094604492,260.30200036621096,63.75500094604492,260.30200036621096,58.02400094604492C260.30200036621096,52.29300094604492,255.60500036621093,47.65800094604492,249.85900036621095,47.65800094604492C244.11300036621094,47.65800094604492,239.41600036621094,52.29300094604492,239.41600036621094,58.02400094604492C239.41600036621094,63.75500094604492,244.11300036621094,68.38900094604492,249.85900036621095,68.38900094604492Z" fill="url(#master_svg_2)" fill-opacity="1"/></g><g style="mix-blend-mode:passthrough"><path d="M232.82000170898436,68.48899913024903C243.06300170898436,68.48899913024903,251.4080017089844,60.215999130249024,251.4080017089844,49.99999913024902C251.4080017089844,39.78499913024902,243.06300170898436,31.511999130249023,232.82000170898436,31.511999130249023C222.57700170898437,31.511999130249023,214.23300170898438,39.78499913024902,214.23300170898438,49.99999913024902C214.23300170898438,60.215999130249024,222.5270017089844,68.48899913024903,232.82000170898436,68.48899913024903Z" fill="url(#master_svg_3)" fill-opacity="1"/></g><g filter="url(#master_svg_4)" style="mix-blend-mode:passthrough"><path d="M169.58400323486327,76.25800137939453C169.58400323486327,80.57800137939454,166.0820032348633,84.07100137939453,161.71300323486327,84.07100137939453C161.63700323486327,84.07100137939453,160.99700323486329,84.07100137939453,156.2890032348633,84.07100137939453C153.01200323486327,84.07100137939453,147.7770032348633,84.07100137939453,139.41600323486327,84.07100137939453L135.42400323486328,84.07100137939453C130.1880032348633,84.18400137939453,126.00800323486328,80.01500137939453,126.00800323486328,74.98100137939453C126.00800323486328,69.91000137939453,130.22600323486327,65.70300137939454,135.53700323486328,65.96600137939453C140.0940032348633,51.76700137939453,160.95900323486327,53.75800137939453,162.7300032348633,68.44500137939453C166.6470032348633,68.93300137939453,169.58400323486327,72.23900137939454,169.58400323486327,76.25800137939453Z" fill="url(#master_svg_5)" fill-opacity="1"/></g><g style="mix-blend-mode:passthrough"><path d="M161.71300341796876,84.07099969482422C166.04400341796875,84.07099969482422,169.58400341796874,80.57799969482421,169.58400341796874,76.25799969482422C169.58400341796874,71.93799969482421,166.04400341796875,68.44499969482422,161.71300341796876,68.44499969482422C157.38200341796875,68.44499969482422,153.84100341796875,71.93799969482421,153.84100341796875,76.25799969482422C153.84100341796875,80.57799969482421,157.38200341796875,84.07099969482422,161.71300341796876,84.07099969482422Z" fill="url(#master_svg_6)" fill-opacity="1"/></g><g style="mix-blend-mode:passthrough"><path d="M148.86999353027343,84.14599826049805C156.59099353027344,84.14599826049805,162.87999353027345,77.91099826049805,162.87999353027345,70.20999826049805C162.87999353027345,62.509998260498044,156.59099353027344,56.27399826049805,148.86999353027343,56.27399826049805C141.14899353027343,56.27399826049805,134.85899353027344,62.509998260498044,134.85899353027344,70.20999826049805C134.85899353027344,77.91099826049805,141.11099353027345,84.14599826049805,148.86999353027343,84.14599826049805Z" fill="url(#master_svg_7)" fill-opacity="1"/></g></g></g></svg>