<svg xmlns="http://www.w3.org/2000/svg" xmlns:xlink="http://www.w3.org/1999/xlink" fill="none" version="1.1" width="120.34840393066406" height="104.76350402832031" viewBox="0 0 120.34840393066406 104.76350402832031"><defs><linearGradient x1="0.5000077486038208" y1="0.07352100312709808" x2="0.5000077486038208" y2="0.4515310227870941" id="master_svg_0"><stop offset="0%" stop-color="#B0BACC" stop-opacity="1"/><stop offset="100%" stop-color="#969EAE" stop-opacity="1"/></linearGradient><filter id="master_svg_1" filterUnits="userSpaceOnUse" color-interpolation-filters="sRGB" x="0.9374065399169922" y="39.12844467163086" width="123.68450927734375" height="90.05899810791016"><feFlood flood-opacity="0" result="BackgroundImageFix"/><feColorMatrix in="SourceAlpha" type="matrix" values="0 0 0 0 0 0 0 0 0 0 0 0 0 0 0 0 0 0 127 0"/><feOffset dy="11" dx="0"/><feGaussianBlur stdDeviation="11"/><feColorMatrix type="matrix" values="0 0 0 0 0.3960784375667572 0 0 0 0 0.47843137383461 0 0 0 0 0.5764706134796143 0 0 0 0.27000001072883606 0"/><feBlend mode="normal" in2="BackgroundImageFix" result="effect1_dropShadow"/><feBlend mode="normal" in="SourceGraphic" in2="effect1_dropShadow" result="shape"/></filter><linearGradient x1="0.4996841251850128" y1="-0.02316455729305744" x2="0.4996841251850128" y2="1.0107594728469849" id="master_svg_2"><stop offset="0%" stop-color="#FDFEFF" stop-opacity="1"/><stop offset="99.6399998664856%" stop-color="#ECF0F5" stop-opacity="1"/></linearGradient></defs><g style="mix-blend-mode:passthrough"><g><g style="mix-blend-mode:passthrough"><path d="M62.21540625,101.95944466400147C88.01940625,101.95944466400147,108.99040625,80.98844466400146,108.99040625,55.185444664001466C108.99040625,29.382444664001465,88.01940625,8.411444664001465,62.21540625,8.411444664001465C36.31640625,8.411444664001465,15.44140625,29.286444664001465,15.44140625,55.185444664001466C15.44140625,80.98844466400146,36.31640625,101.95944466400147,62.21540625,101.95944466400147Z" fill="#EAEEF9" fill-opacity="1"/></g><g style="mix-blend-mode:passthrough"><path d="M32.784405944824215,42.399444580078125L89.32540594482421,42.399444580078125C91.44240594482422,42.399444580078125,93.34840594482422,44.19944458007812,93.34840594482422,46.423444580078126L93.34840594482422,82.10544458007813C93.34840594482422,84.22244458007813,91.54840594482422,86.12844458007812,89.32540594482421,86.12844458007812L32.784405944824215,86.12844458007812C30.667405944824218,86.12844458007812,28.76140594482422,84.32844458007813,28.76140594482422,82.10544458007813L28.76140594482422,46.423444580078126C28.76140594482422,44.19944458007812,30.667405944824218,42.399444580078125,32.784405944824215,42.399444580078125Z" fill="url(#master_svg_0)" fill-opacity="1"/></g><g style="mix-blend-mode:passthrough"><path d="M116.62440161376954,43.492443361816406C118.07440161376954,42.139443361816404,118.17140161376953,39.916443361816405,116.81840161376954,38.46644336181641C115.46540161376953,37.01744536181641,113.24240161376953,36.920445361816405,111.79240161376953,38.27344536181641C110.34340361376952,39.626443361816406,110.24640361376953,41.849443361816405,111.59940361376952,43.2984433618164C112.85540161376953,44.651443361816405,115.17540161376954,44.84544336181641,116.62440161376954,43.492443361816406Z" fill="#EAEEF9" fill-opacity="1"/></g><g style="mix-blend-mode:passthrough"><path d="M116.8174098828125,27.546446091918945C117.3974098828125,26.966446091918947,117.4944098828125,26.000446091918946,116.9144098828125,25.420444091918945C116.3344098828125,24.840443791918947,115.3684098828125,24.743444091918946,114.7884078828125,25.323444091918944C114.2084075828125,25.903444091918946,114.1114078828125,26.869446091918945,114.6914078828125,27.449446091918944C115.2714078828125,28.126446091918947,116.2384098828125,28.126446091918947,116.8174098828125,27.546446091918945Z" fill="#EAEEF9" fill-opacity="1"/></g><g style="mix-blend-mode:passthrough"><path d="M78.83840523681641,5.609447461700439C79.22440523681641,5.2224474617004395,79.3214052368164,4.54644446170044,78.9344052368164,4.159444461700439C78.54840523681641,3.7724446617004395,77.87140223681641,3.6764444617004393,77.48540223681641,4.06244446170044C77.0984024368164,4.449444461700439,77.00240223681641,5.125447461700439,77.3884022368164,5.5124474617004395C77.7754022368164,5.89844746170044,78.45140523681641,5.99544746170044,78.83840523681641,5.609447461700439Z" fill="#EAEEF9" fill-opacity="1"/></g><g style="mix-blend-mode:passthrough"><path d="M113.88944139404296,23.5524L99.80744139404297,48.6464C99.27744139404297,49.4934,98.21944139404297,49.8114,97.47744139404297,49.2814L73.33740839404297,35.1994C72.48940809404297,34.6704,72.17240839404298,33.6114,72.70140839404297,32.8704L91.23044139404297,0.894445C91.76044139404297,0.0474446,92.81944139404297,-0.270555,93.56044139404297,0.258445L111.03044139404297,10.4234L113.88944139404296,23.5524Z" fill="#F2F6FA" fill-opacity="1"/></g><g style="mix-blend-mode:passthrough"><path d="M111.03040230712891,10.423444747924805L107.0074063071289,17.199444747924804C106.4774063071289,18.258444747924806,106.7954058071289,19.317444747924803,107.7484063071289,19.952444747924805L113.78340230712891,23.446444747924804" fill="#D5DAE6" fill-opacity="1"/></g><g style="mix-blend-mode:passthrough"><path d="M95.57240423583984,16.882444381713867C95.25440423583984,16.882444381713867,94.83040423583984,16.882444381713867,94.40740423583985,16.98844438171387L94.30140423583984,18.470444381713868C94.30140423583984,18.682444381713868,94.51340423583984,18.999444381713868,94.72540423583985,19.105444381713866C94.83040423583984,19.211444381713868,95.04240423583984,19.211444381713868,95.14840423583985,19.211444381713868L95.88940423583985,19.211444381713868C96.20740423583985,19.211444381713868,96.52540423583984,19.211444381713868,96.84240423583984,19.317444381713866C97.26640423583984,19.423444381713868,97.68940423583985,19.635444381713867,98.00740423583984,19.846444381713866C98.32540423583984,20.05844438171387,98.53640423583984,20.270444381713865,98.74840423583984,20.48244438171387C98.96040423583985,20.693444381713867,99.06640423583984,20.905444381713867,99.17240423583985,21.22344438171387C99.27740423583984,21.435444381713868,99.27740423583984,21.646444381713867,99.27740423583984,21.964444381713868C99.17240423583985,22.282444381713866,99.06640423583984,22.599444381713866,98.96040423583985,22.81144438171387C98.74840423583984,23.23544438171387,98.53640423583984,23.55244438171387,98.11340423583985,23.764444381713865C97.68940423583985,23.97644438171387,97.37240423583984,24.082444381713866,96.94840423583985,24.187444381713867C96.52540423583984,24.29344438171387,96.10140423583985,24.399444381713867,95.67840423583985,24.399444381713867C95.25440423583984,24.50544438171387,94.93640423583985,24.50544438171387,94.51340423583984,24.611444381713866C94.19540423583985,24.717444381713868,93.87840423583984,24.823444381713866,93.56040423583984,25.035444381713866C93.34840423583984,25.246444381713868,93.03040423583984,25.56444438171387,92.92540423583985,25.882444381713867L92.07840423583984,27.78744438171387L93.98340423583984,28.846444381713866L95.14840423583985,27.364444381713867C95.36040423583984,27.152444381713867,95.57240423583984,27.04644438171387,95.88940423583985,26.940444381713867C96.31340423583984,26.834444381713865,96.63040423583985,26.72944438171387,96.94840423583985,26.72944438171387L98.11340423583985,26.623444381713867C98.53640423583984,26.623444381713867,98.96040423583985,26.517444381713865,99.38340423583985,26.30544438171387C99.91340423583985,26.093444381713866,100.23040423583984,25.882444381713867,100.65440423583985,25.56444438171387C101.07740423583985,25.140444381713866,101.39540423583985,24.717444381713868,101.71340423583985,24.187444381713867C102.03040423583984,23.658444381713867,102.24240423583984,23.023444381713865,102.34840423583984,22.387444381713866C102.34840423583984,21.858444381713866,102.34840423583984,21.22344438171387,102.13640423583985,20.693444381713867C101.92540423583985,20.05844438171387,101.60740423583985,19.529444381713866,101.18340423583984,19.105444381713866C100.76040423583984,18.576444381713866,100.23040423583984,18.152444381713867,99.59540423583985,17.835444381713867C99.17240423583985,17.623444381713867,98.74840423583984,17.411444381713867,98.21940423583985,17.199444381713867C97.79540423583984,17.093444381713866,97.26640423583984,16.98844438171387,96.84240423583984,16.882444381713867L95.57240423583984,16.882444381713867ZM89.53640423583984,30.329444381713866C89.32540423583984,30.54044438171387,89.11340423583984,30.752444381713865,89.00740423583984,30.964444381713868C88.90140423583985,31.176444381713868,88.79540423583984,31.38744438171387,88.79540423583984,31.599444381713866C88.68940423583985,31.81144438171387,88.68940423583985,32.12944438171387,88.79540423583984,32.340444381713866C88.79540423583984,32.55244438171387,89.00740423583984,32.764444381713865,89.11340423583984,32.97644438171387C89.32540423583984,33.18744438171387,89.53640423583984,33.39944438171386,89.74840423583984,33.50544438171387C90.17240423583985,33.71744438171387,90.70140423583985,33.82344438171387,91.23140423583985,33.71744438171387C92.28940423583984,33.39944438171386,92.92540423583985,32.44644438171387,92.60740423583984,31.38744438171387C92.50140423583984,31.176444381713868,92.39540423583985,30.964444381713868,92.28940423583984,30.752444381713865C92.07840423583984,30.54044438171387,91.86640423583984,30.329444381713866,91.65440423583985,30.22344438171387C91.23140423583985,29.905444381713867,90.70140423583985,29.905444381713867,90.17240423583985,30.011444381713865C89.96040423583985,30.011444381713865,89.74840423583984,30.22344438171387,89.53640423583984,30.329444381713866Z" fill-rule="evenodd" fill="#CED6E2" fill-opacity="1"/></g><g style="mix-blend-mode:passthrough"><path d="M23.3614,12.647444091796874L39.4554,29.482444091796875C39.9844,30.117444091796877,39.9844,30.964444091796874,39.3494,31.493444091796874L22.9374,47.05844409179687C22.3024,47.587444091796876,21.4554,47.587444091796876,20.9254,46.95244409179688L0.384406,25.246444091796874C-0.144594,24.611444091796876,-0.144594,23.764444091796875,0.490406,23.235444091796875L12.4554,12.011444091796875L23.3614,12.647444091796874Z" fill="#F2F6FA" fill-opacity="1"/></g><g style="mix-blend-mode:passthrough"><path d="M12.349406242370605,11.799444198608398L16.796406242370605,16.458444198608397C17.431406242370606,17.0934441986084,18.490406242370604,17.0934441986084,19.126406242370606,16.458444198608397L23.255406242370604,12.5414441986084" fill="#D5DAE6" fill-opacity="1"/></g><g style="mix-blend-mode:passthrough"><path d="M13.831406150817871,25.35244398498535C13.726406150817871,25.67044398498535,13.620406150817871,25.988443984985352,13.620406150817871,26.305443984985352L14.78440615081787,26.517443984985352C14.99640615081787,26.62344398498535,15.31440615081787,26.62344398498535,15.420406150817872,26.41144398498535C15.526406150817872,26.305443984985352,15.63140615081787,26.19944398498535,15.63140615081787,26.093443984985353C15.63140615081787,25.988443984985352,15.63140615081787,25.776443984985352,15.737406150817872,25.564443984985353C15.84340615081787,25.24644398498535,15.949406150817872,25.035443984985353,16.05540615081787,24.823443984985353C16.26740615081787,24.61144398498535,16.47840615081787,24.294443984985353,16.69040615081787,24.082443984985353C16.90240615081787,23.87044398498535,17.11440615081787,23.764443984985352,17.32540615081787,23.65844398498535C17.537406150817873,23.552443984985352,17.74940615081787,23.44644398498535,17.961406150817872,23.44644398498535C18.173406150817872,23.44644398498535,18.38440615081787,23.44644398498535,18.59640615081787,23.552443984985352C18.80840615081787,23.65844398498535,19.02040615081787,23.764443984985352,19.12540615081787,23.97644398498535C19.33740615081787,24.294443984985353,19.549406150817873,24.61144398498535,19.65540615081787,24.92944398498535C19.76140615081787,25.24644398498535,19.76140615081787,25.564443984985353,19.76140615081787,25.88244398498535C19.76140615081787,26.19944398498535,19.76140615081787,26.517443984985352,19.65540615081787,26.835443984985353C19.65540615081787,27.152443984985354,19.549406150817873,27.47044398498535,19.549406150817873,27.788443984985353C19.549406150817873,28.10544398498535,19.549406150817873,28.317443984985353,19.65540615081787,28.63544398498535C19.76140615081787,28.95244398498535,19.973406150817873,29.16444398498535,20.18440615081787,29.37644398498535L21.455406150817872,30.54144398498535L22.72540615081787,29.37644398498535L21.87840615081787,28.10544398498535C21.66740615081787,27.893443984985353,21.66740615081787,27.68244398498535,21.66740615081787,27.47044398498535C21.66740615081787,27.152443984985354,21.772406150817872,26.94144398498535,21.772406150817872,26.62344398498535C21.87840615081787,26.305443984985352,21.87840615081787,25.988443984985352,21.984406150817872,25.67044398498535L21.984406150817872,24.61144398498535C21.87840615081787,24.18844398498535,21.772406150817872,23.764443984985352,21.66740615081787,23.44644398498535C21.56140615081787,23.023443984985352,21.243406150817872,22.599443984985353,20.92540615081787,22.282443984985353C20.50240615081787,21.96444398498535,20.07840615081787,21.64644398498535,19.65540615081787,21.43544398498535C19.23140615081787,21.329443984985353,18.702406150817872,21.22344398498535,18.278406150817872,21.22344398498535C17.85540615081787,21.22344398498535,17.32540615081787,21.329443984985353,16.90240615081787,21.541443984985353C16.37340615081787,21.75244398498535,15.949406150817872,22.070443984985353,15.52540615081787,22.494443984985352C15.208406150817872,22.811443984985353,14.89040615081787,23.12944398498535,14.678406150817871,23.44644398498535C14.46740615081787,23.764443984985352,14.25540615081787,24.082443984985353,14.149406150817871,24.399443984985353C14.043406150817871,24.71744398498535,13.937406150817871,25.035443984985353,13.831406150817871,25.35244398498535ZM23.043406150817873,33.188443984985355C23.14940615081787,33.39944398498535,23.25540615081787,33.61144398498535,23.36140615081787,33.71744398498535C23.467406150817872,33.929443984985355,23.67840615081787,34.03544398498535,23.99640615081787,34.14044398498535C24.314406150817874,34.24644398498535,24.737406150817872,34.24644398498535,25.16140615081787,34.14044398498535C25.372406150817874,34.14044398498535,25.58440615081787,33.929443984985355,25.69040615081787,33.82344398498535C25.90240615081787,33.61144398498535,26.00840615081787,33.50544398498535,26.11440615081787,33.29344398498535C26.11440615081787,33.08244398498535,26.21940615081787,32.87044398498535,26.21940615081787,32.658443984985354C26.21940615081787,32.44644398498535,26.21940615081787,32.23544398498535,26.11440615081787,32.02344398498535C25.90240615081787,31.38844398498535,25.26740615081787,30.964473984985354,24.63140615081787,30.964473984985354C24.420406150817872,30.964473984985354,24.208406150817872,30.964473984985354,23.99640615081787,31.07047398498535C23.784406150817873,31.17647398498535,23.57240615081787,31.28244398498535,23.467406150817872,31.38844398498535C23.14940615081787,31.70544398498535,22.93740615081787,32.12944398498535,22.93740615081787,32.55244398498535C22.93740615081787,32.76444398498535,22.93740615081787,32.97644398498535,23.043406150817873,33.188443984985355Z" fill-rule="evenodd" fill="#CED6E2" fill-opacity="1"/></g><g style="mix-blend-mode:passthrough"><path d="M65.39645244140625,39.11747640686035L59.149452441406254,61.45847640686035C58.93745244140625,62.19947640686035,58.09045244140625,62.72847640686035,57.34945244140625,62.41147640686035L35.64341244140625,56.05847640686035C34.90240744140625,55.84647640686035,34.37240744140625,54.99947640686035,34.69040754140625,54.25847640686035L43.16040244140625,25.45844640686035C43.372412441406254,24.717444406860352,44.21940244140625,24.188444406860352,44.96045244140625,24.50544480686035L60.73745244140625,29.16444640686035L65.39645244140625,39.11747640686035Z" fill="#F2F6FA" fill-opacity="1"/></g><g style="mix-blend-mode:passthrough"><path d="M60.73940753173828,29.203445434570312L58.725408131738284,35.51744543457031C58.51340853173828,36.364445434570314,59.04340853173828,37.31744543457032,59.89040753173828,37.52944543457031L65.47440753173828,39.10744543457031" fill="#D5DAE6" fill-opacity="1"/></g><g style="mix-blend-mode:passthrough"><path d="M49.725407287597655,37.42344485473633C49.408407287597655,37.529444854736326,49.09040728759766,37.63544485473633,48.77240728759766,37.74044485473633L49.30240728759766,38.90544485473633C49.30240728759766,39.11744485473633,49.51340728759766,39.32944485473633,49.725407287597655,39.32944485473633C49.873217287597654,39.40335485473633,49.969497287597655,39.37419485473633,50.05018728759766,39.349774854736324C50.08521728759766,39.339164854736325,50.11731728759766,39.32944485473633,50.149407287597654,39.32944485473633C50.255407287597656,39.32944485473633,50.466407287597654,39.22344485473633,50.67840728759766,39.22344485473633C50.890407287597654,39.11744485473633,51.207407287597654,39.11744485473633,51.41940728759766,39.11744485473633C51.84340728759766,39.11744485473633,52.16040728759766,39.11744485473633,52.478407287597655,39.22344485473633C52.79640728759766,39.32944485473633,53.00740728759766,39.43544485473633,53.219407287597654,39.54044485473633C53.43140728759766,39.752444854736325,53.643407287597654,39.85844485473633,53.749407287597656,40.07044485473633C53.85540728759766,40.282444854736326,53.960407287597654,40.493444854736325,53.960407287597654,40.70544485473633L53.960407287597654,41.234444854736324C53.85540728759766,41.65844485473633,53.643407287597654,41.97644485473633,53.43140728759766,42.18744485473633C53.11340728759765,42.39944485473633,52.902407287597654,42.61144485473633,52.58440728759766,42.71744485473633C52.26640728759766,42.92944485473633,51.94940728759766,43.03444485473633,51.63140728759765,43.14044485473633C51.41940728759766,43.246444854736325,51.10240728759766,43.352444854736326,50.78440728759766,43.45844485473633C50.466407287597654,43.56444485473633,50.255407287597656,43.776444854736326,50.04340728759766,43.987444854736324C49.831407287597656,44.19944485473633,49.61940728759765,44.41144485473633,49.61940728759765,44.72944485473633L49.30240728759766,46.42344485473633L50.996407287597656,47.16444485473633L51.63140728759765,45.78744485473633C51.63140728759765,45.57644485473633,51.84340728759766,45.36444485473633,52.05540728759766,45.258444854736325C52.26640728759766,45.15244485473633,52.58440728759766,45.04644485473633,52.79640728759766,44.94044485473633L53.749407287597656,44.62344485473633C54.066407287597656,44.517444854736326,54.384407287597654,44.30544485473633,54.70240728759766,44.093444854736326C55.01940728759766,43.88244485473633,55.33740728759766,43.56444485473633,55.54940728759766,43.246444854736325C55.86640728759765,42.82344485473633,56.078407287597656,42.39944485473633,56.18440728759766,41.97644485473633C56.29040728759766,41.55244485473633,56.396407287597654,41.023444854736326,56.29040728759766,40.493444854736325C56.18440728759766,40.07044485473633,55.972407287597655,39.64644485473633,55.76040728759766,39.22344485473633C55.44340728759766,38.79944485473633,55.12540728759765,38.48244485473633,54.70240728759766,38.16444485473633C54.27840728759766,37.846444854736326,53.749407287597656,37.529444854736326,53.219407287597654,37.42344485473633C52.79640728759766,37.31744485473633,52.37240728759765,37.21144485473633,51.94940728759766,37.21144485473633L50.78440728759766,37.21144485473633C50.36040728759765,37.21144485473633,50.04340728759766,37.31744485473633,49.725407287597655,37.42344485473633ZM47.502407287597656,49.38744485473633C47.29040728759766,49.493444854736325,47.29040728759766,49.70544485473633,47.18440728759766,49.91744485473633C47.18440728759766,50.12944485473633,47.18440728759766,50.340444854736326,47.078407287597656,50.44644485473633C47.18440728759766,50.65844485473633,47.18440728759766,50.764444854736325,47.29040728759766,50.97644485473633C47.396407287597654,51.081444854736326,47.502407287597656,51.29344485473633,47.713407287597654,51.39944485473633C47.819407287597656,51.61144485473633,48.03140728759766,51.61144485473633,48.243407287597655,51.71744485473633C48.560407287597656,51.82344485473633,48.984407287597655,51.82344485473633,49.408407287597655,51.61144485473633C50.149407287597654,51.29344485473633,50.466407287597654,50.340444854736326,50.04340728759766,49.599444854736326C49.93740728759766,49.493444854736325,49.725407287597655,49.28144485473633,49.61940728759765,49.17644485473633C49.51340728759766,49.07044485473633,49.30240728759766,48.96444485473633,49.09040728759766,48.85844485473633C48.77240728759766,48.752444854736325,48.34940728759766,48.752444854736325,47.92540728759766,48.96444485473633C47.819407287597656,49.07044485473633,47.60840728759766,49.17644485473633,47.502407287597656,49.38744485473633Z" fill-rule="evenodd" fill="#CED6E2" fill-opacity="1"/></g><g style="mix-blend-mode:passthrough"><path d="M116.43038198242188,77.34047360229492L95.88938198242188,88.45747360229493C95.25438198242188,88.77547360229492,94.30138198242187,88.56347360229492,93.98338198242188,87.82247360229492L83.71340898242188,67.81147360229492C83.39540898242187,67.17547360229491,83.60740898242187,66.22247360229493,84.34840898242187,65.90547360229492L111.03038198242187,51.822443602294925C111.66638198242188,51.505443602294925,112.61938198242187,51.71744380229492,112.93638198242188,52.45844360229492L120.34838198242187,66.96347360229493L116.43038198242188,77.34047360229492Z" fill="#F2F6FA" fill-opacity="1"/></g><g style="mix-blend-mode:passthrough"><path d="M120.24240600097656,67.17544555664062L114.52440500097656,70.14044555664063C113.78340500097656,70.56444555664062,113.46640500097656,71.62244555664063,113.78340500097656,72.36444555664062L116.32440600097657,77.44644555664063" fill="#D5DAE6" fill-opacity="1"/></g><g style="mix-blend-mode:passthrough"><path d="M106.90139626464844,64.84644720458985C106.58339626464844,64.74044720458984,106.37239626464844,64.52844720458984,106.05439626464843,64.42244720458984L105.52439626464843,65.69344720458984C105.41939626464844,65.79944720458984,105.41939626464844,66.11744720458984,105.52439626464843,66.22244720458984C105.63039626464844,66.43444720458984,105.73639626464843,66.43444720458984,105.84239626464844,66.54044720458984C105.94839626464844,66.64644720458985,106.16039626464844,66.75244720458984,106.26639626464844,66.85844720458985C106.47739626464843,66.96444720458985,106.68939626464844,67.17544720458984,106.79539626464843,67.28144720458984C107.00739626464843,67.59944720458985,107.21939626464844,67.81144720458984,107.32439626464844,68.12844720458985C107.53639626464843,68.44644720458984,107.53639626464843,68.65844720458985,107.64239626464844,68.86944720458985C107.64239626464844,68.98473720458985,107.65629626464843,69.08608720458984,107.66909626464843,69.17856720458984C107.69139626464843,69.34116720458985,107.70999626464844,69.47630720458984,107.64239626464844,69.61144720458984C107.64239626464844,70.14044720458985,107.21939626464844,70.45844720458985,106.90139626464844,70.66944720458984C106.47739626464843,70.88144720458985,106.16039626464844,70.98744720458984,105.84239626464844,70.98744720458984C105.41939626464844,70.88144720458985,105.20741626464843,70.88144720458985,104.88941626464843,70.77544720458984C104.46641626464844,70.66944720458984,104.25441626464844,70.45844720458985,103.93641626464844,70.35244720458985C103.72441626464844,70.24644720458984,103.51341626464844,70.03444720458984,103.19541626464844,69.92844720458984C102.87741626464843,69.82244720458985,102.66641626464843,69.82244720458985,102.34841626464844,69.82244720458985C102.03041626464844,69.82244720458985,101.71341626464844,69.82244720458985,101.50141626464844,70.03444720458984L100.12541626464844,70.98744720458984L100.86641626464844,72.57544720458985L102.24241626464844,72.04644720458984C102.34841626464844,71.83444720458985,102.66641626464843,71.83444720458985,102.87741626464843,71.94044720458984C103.08941626464843,72.04644720458984,103.40741626464843,72.15244720458985,103.61941626464844,72.25844720458984L104.46641626464844,72.68144720458984C104.78341626464844,72.89344720458985,105.20741626464843,72.89344720458985,105.52439626464843,72.99944720458984C105.84239626464844,73.10544720458984,106.37239626464844,73.10544720458984,106.68939626464844,72.99944720458984C107.11339626464844,72.89344720458985,107.64239626464844,72.78744720458984,107.96039626464844,72.57544720458985C108.38339626464844,72.36444720458985,108.80739626464843,72.04644720458984,109.12439626464844,71.62244720458985C109.33639626464844,71.19944720458984,109.54839626464843,70.77544720458984,109.65439626464844,70.35244720458985C109.65439626464844,70.17162720458984,109.66679626464844,70.00326720458985,109.67879626464844,69.83885720458984C109.70209626464843,69.52136720458984,109.72429626464844,69.21862720458984,109.65439626464844,68.86944720458985C109.65439626464844,68.44644720458984,109.54839626464843,67.81144720458984,109.23039626464843,67.38744720458985C109.01939626464844,66.96444720458985,108.80739626464843,66.64644720458985,108.48939626464843,66.32844720458985C108.27739626464844,66.01144720458984,108.06639626464843,65.79944720458984,107.74839626464843,65.48144720458984C107.43039626464844,65.16444720458985,107.21939626464844,64.95244720458984,106.90139626464844,64.84644720458985ZM96.29640726464844,71.68163720458985C96.26840226464844,71.69676720458985,96.23908826464844,71.71260720458984,96.20740726464844,71.72844720458984C96.10140726464844,71.94044720458984,95.78340726464843,71.94044720458984,95.67840726464844,72.04644720458984C95.67840726464844,72.25844720458984,95.57240726464843,72.36444720458985,95.46640736464843,72.57544720458985C95.46640736464843,72.60521720458985,95.45805076464843,72.64333720458984,95.44837666464844,72.68745720458985C95.42359581464844,72.80049720458985,95.39016976464843,72.95297720458984,95.46640736464843,73.10544720458984C95.46640736464843,73.31644720458985,95.46640736464843,73.52844720458984,95.57240726464843,73.74044720458984C95.67840726464844,74.05844720458984,95.99540726464843,74.37544720458985,96.41940626464844,74.48144720458984L96.94840626464844,74.48144720458984C97.16040626464844,74.48144720458984,97.37240626464843,74.48144720458984,97.58340626464843,74.37544720458985C97.90140626464844,74.26944720458984,98.21940626464844,73.84644720458985,98.32540626464844,73.52844720458984L98.32540626464844,72.99944720458984C98.32540626464844,72.78744720458984,98.32540626464844,72.57544720458985,98.21940626464844,72.36444720458985C98.11340626464843,72.04644720458984,97.79540626464843,71.72844720458984,97.37240626464843,71.62244720458985C97.34264626464844,71.62244720458985,97.30452626464844,71.61409720458984,97.26039626464843,71.60441720458985C97.14735626464844,71.57963720458984,96.99488626464844,71.54621720458985,96.84240626464843,71.62244720458985C96.57277626464844,71.53228720458985,96.45579626464844,71.59550720458985,96.29640726464844,71.68163720458985Z" fill-rule="evenodd" fill="#CED6E2" fill-opacity="1"/></g><g style="mix-blend-mode:passthrough"><path d="M95.90740672302246,65.3754440612793L95.90740672302246,82.95144406127929L94.40740672302246,82.95144406127929L95.90740672302246,82.95144406127929Q95.90740672302246,85.2406440612793,94.23730672302246,86.9110440612793Q92.56710672302246,88.5814440612793,90.27840672302247,88.5814440612793L90.27840672302247,87.0814440612793L90.27840672302247,88.5814440612793L32.14940672302246,88.5814440612793L32.14940672302246,87.0814440612793L32.14940672302246,88.5814440612793Q29.86003672302246,88.5814440612793,28.190070723022462,86.9109440612793Q26.52040672302246,85.2407440612793,26.52040672302246,82.95144406127929L28.02040672302246,82.95144406127929L26.52040672302246,82.95144406127929L26.52040672302246,63.8934440612793L29.52040672302246,63.8934440612793L29.52040672302246,82.95144406127929L29.52040672302246,82.95144406127929Q29.52040672302246,83.9983440612793,30.31174672302246,84.7899440612793Q31.102966723022462,85.5814440612793,32.14940672302246,85.5814440612793L32.14940672302246,85.5814440612793L90.27840672302247,85.5814440612793L90.27840672302247,85.5814440612793Q91.32430672302246,85.5814440612793,92.11580672302246,84.7898440612793Q92.90740672302246,83.9981440612793,92.90740672302246,82.95144406127929L92.90740672302246,82.95144406127929L92.90740672302246,65.3754440612793L95.90740672302246,65.3754440612793Z" fill="#1676EE" fill-opacity="1"/></g><g style="mix-blend-mode:passthrough"><path d="M92.18340606689453,54.046443939208984L72.27840606689453,54.046443939208984C70.37240606689454,54.046443939208984,68.46640606689454,54.68144393920898,66.98440606689454,55.95244393920898L61.69040606689453,60.18744393920898C60.207406066894535,61.35244393920898,58.30140606689453,62.09344393920898,56.39640606689453,62.09344393920898L33.73740606689453,62.09344393920898C31.51440606689453,62.09344393920898,29.60840606689453,63.893443939208986,29.60840606689453,66.22244393920899C29.60840606689453,66.43444393920899,29.60840606689453,66.64644393920898,29.714406066894533,66.85844393920898L33.84340606689453,88.56344393920898C34.16140606689453,90.57544393920898,35.96140606689453,92.16344393920897,37.972406066894536,92.16344393920897L86.36040606689454,92.16344393920897C88.47840606689454,92.16344393920897,90.17240606689452,90.68144393920898,90.48940606689453,88.66944393920897L96.31340606689453,58.811443939208985C96.63040606689454,56.58744393920898,95.14840606689454,54.469443939208986,92.81940606689453,54.152443939208986C92.60740606689453,54.046443939208984,92.39540606689454,54.046443939208984,92.18340606689453,54.046443939208984Z" fill="#FFFFFF" fill-opacity="1"/></g><g filter="url(#master_svg_1)" style="mix-blend-mode:passthrough"><path d="M97.68940653991699,50.12844467163086L73.97240653991699,50.12844467163086C71.748406539917,50.12844467163086,69.41940653991699,50.97644467163086,67.72540653991699,52.35244467163086L61.372406539916994,57.54044467163086C59.57240653991699,59.023444671630855,57.34940653991699,59.764444671630855,55.125406539916995,59.764444671630855L27.914406539916993,59.764444671630855C25.26740653991699,59.764444671630855,22.937406539916992,61.88144467163086,22.937406539916992,64.74044467163085C22.937406539916992,64.95244467163086,22.937406539916992,65.26944467163086,23.043406539916994,65.48144467163085L28.02040653991699,91.84644467163086C28.443406539916992,94.28144467163085,30.455406539916993,96.18744467163086,32.99640653991699,96.18744467163086L90.70140653991699,96.18744467163086C93.13640653991699,96.18744467163086,95.25440653991699,94.38744467163086,95.67840653991699,91.95244467163086L102.560406539917,55.84644467163086C102.983406539917,53.19944467163086,101.18340653991699,50.55244467163086,98.43140653991699,50.12844467163086C98.21940653991699,50.12844467163086,97.90140653991699,50.12844467163086,97.68940653991699,50.12844467163086Z" fill="url(#master_svg_2)" fill-opacity="1"/></g><g style="mix-blend-mode:passthrough"><path d="M51.949405853271486,77.86944506835937C53.325405853271484,77.86944506835937,54.49040585327148,76.70544506835938,54.49040585327148,75.32844506835937C54.49040585327148,73.95244506835938,53.325405853271484,72.78744506835938,51.949405853271486,72.78744506835938C50.57240585327148,72.78744506835938,49.407405853271484,73.95244506835938,49.407405853271484,75.32844506835937C49.407405853271484,76.70544506835938,50.57240585327148,77.86944506835937,51.949405853271486,77.86944506835937Z" fill="#989FB0" fill-opacity="1"/></g><g style="mix-blend-mode:passthrough"><path d="M71.74840509033203,77.44644091796874C73.12540509033204,77.44644091796874,74.29040509033203,76.28144091796875,74.29040509033203,74.90544091796875C74.29040509033203,73.52844091796875,73.12540509033204,72.36444091796875,71.74840509033203,72.36444091796875C70.37240509033204,72.36444091796875,69.20740509033203,73.52844091796875,69.20740509033203,74.90544091796875C69.20740509033203,76.28144091796875,70.37240509033204,77.44644091796874,71.74840509033203,77.44644091796874Z" fill="#989FB0" fill-opacity="1"/></g><g style="mix-blend-mode:passthrough"><path d="M67.19540628051757,81.6814475L65.81940628051758,81.6814475C64.65440628051758,79.3524475,61.79640628051758,78.3994445,59.572406280517576,79.6694475C58.61940628051758,80.0934475,57.87840628051758,80.9404475,57.560406280517576,81.6814475L56.18440628051758,81.6814475C57.34940628051758,78.6104445,60.84340628051758,77.0224445,63.807406280517576,78.1874445C65.39640628051758,78.8224475,66.56040628051758,80.0934475,67.19540628051757,81.6814475Z" fill="#989FB0" fill-opacity="1"/></g><g style="mix-blend-mode:passthrough"><path d="M106.92550563964843,104.74844708251953C107.04770563964844,104.76524708251952,107.17260563964844,104.76344708251953,107.32440563964843,104.76344708251953C109.23040563964844,104.76344708251953,110.07740563964845,102.54044708251953,108.70140563964844,101.26944708251953L100.33640563964843,92.90444708251954C106.37140563964843,84.11644708251953,100.01940563964844,72.57544708251953,89.74840563964844,72.57544708251953C82.65440563964845,72.57544708251953,76.83140563964844,78.39944708251953,76.83140563964844,85.49344708251954C76.83140563964844,96.08144708251953,88.90140563964843,102.32844708251953,97.58340563964843,95.86944708251953C105.40950563964844,103.69554708251954,106.11040563964843,104.63614708251953,106.92550563964843,104.74844708251953ZM80.96040563964844,85.59944708251953C80.96040563964844,80.62244708251953,84.98340563964844,76.70544708251953,89.85440563964843,76.70544708251953C94.72440563964844,76.70544708251953,98.74840563964844,80.62244708251953,98.64240563964844,85.70544708251953C98.64240563964844,86.12844708251953,98.53640563964844,86.44644708251953,98.53640563964844,86.86944708251953C98.53640563964844,87.39944708251953,98.43040563964844,87.92844708251953,98.21940563964844,88.45744708251954C98.00740563964844,88.98744708251954,97.79540563964844,89.51644708251953,97.58340563964843,89.94044708251953C97.37240563964843,90.36344708251953,97.05440563964844,90.78744708251953,96.73640563964844,91.21044708251954C96.41940563964843,91.52844708251953,95.99540563964844,91.95244708251953,95.67740563964844,92.26944708251953C95.25440563964844,92.69344708251953,94.83040563964843,93.01044708251953,94.30140563964844,93.32844708251953C93.87740563964843,93.54044708251953,93.45440563964844,93.75144708251953,92.92540563964843,93.96344708251954C92.50140563964844,94.17544708251953,91.97240563964844,94.28144708251953,91.44240563964844,94.38744708251953C90.91340563964843,94.49344708251954,90.38340563964843,94.49344708251954,89.85440563964843,94.49344708251954C84.87840563964843,94.49344708251954,80.96040563964844,90.57544708251953,80.96040563964844,85.59944708251953Z" fill-rule="evenodd" fill="#989FB0" fill-opacity="1"/></g><g style="mix-blend-mode:passthrough"><path d="M51.774227836914065,68.57819932177735L46.057230836914066,71.64820232177735L45.34758483691406,70.32668232177734L51.064587836914065,67.25668532177734L51.774227836914065,68.57819932177735Z" fill="#989FB0" fill-opacity="1"/></g><g style="mix-blend-mode:passthrough"><path d="M76.36114814208985,70.16104543457031L70.64314714208984,66.98404743457031L71.37166914208984,65.67284343457031L77.08966814208985,68.84984543457031L76.36114814208985,70.16104543457031Z" fill="#989FB0" fill-opacity="1"/></g></g></g></svg>