<svg xmlns="http://www.w3.org/2000/svg" xmlns:xlink="http://www.w3.org/1999/xlink" fill="none" version="1.1" width="127.69999694824219" height="107.5" viewBox="0 0 127.69999694824219 107.5"><defs><filter id="master_svg_0" filterUnits="userSpaceOnUse" color-interpolation-filters="sRGB" x="-16.5" y="-3.5096044540405273" width="159.6999969482422" height="117.91554260253906"><feFlood flood-opacity="0" result="BackgroundImageFix"/><feColorMatrix in="SourceAlpha" type="matrix" values="0 0 0 0 0 0 0 0 0 0 0 0 0 0 0 0 0 0 127 0"/><feOffset dy="11" dx="0"/><feGaussianBlur stdDeviation="11"/><feColorMatrix type="matrix" values="0 0 0 0 0.3960784375667572 0 0 0 0 0.47843137383461 0 0 0 0 0.5764706134796143 0 0 0 0.27000001072883606 0"/><feBlend mode="normal" in2="BackgroundImageFix" result="effect1_dropShadow"/><feBlend mode="normal" in="SourceGraphic" in2="effect1_dropShadow" result="shape"/></filter><linearGradient x1="0.4996841251850128" y1="-0.02316455729305744" x2="0.4996841251850128" y2="1.0107594728469849" id="master_svg_1"><stop offset="0%" stop-color="#FDFEFF" stop-opacity="1"/><stop offset="99.6399998664856%" stop-color="#ECF0F5" stop-opacity="1"/></linearGradient><linearGradient x1="-0.05320574343204498" y1="-0.10769230872392654" x2="0.3900478482246399" y2="0.3793269097805023" id="master_svg_2"><stop offset="0%" stop-color="#BCCBE1" stop-opacity="1"/><stop offset="99.41999912261963%" stop-color="#FFFFFF" stop-opacity="0"/></linearGradient><linearGradient x1="-0.04681451618671417" y1="0.27048516273498535" x2="0.34567204117774963" y2="0.4245283007621765" id="master_svg_3"><stop offset="0%" stop-color="#E2E8F0" stop-opacity="1"/><stop offset="99.41999912261963%" stop-color="#FFFFFF" stop-opacity="0"/></linearGradient><linearGradient x1="0.5000673532485962" y1="0.03471074253320694" x2="0.5000673532485962" y2="0.5958677530288696" id="master_svg_4"><stop offset="0%" stop-color="#B0BACC" stop-opacity="1"/><stop offset="100%" stop-color="#969EAE" stop-opacity="1"/></linearGradient></defs><g style="mix-blend-mode:passthrough"><g><g style="mix-blend-mode:passthrough"><path d="M63.70000019073486,107.5C93.40000019073486,107.5,117.60000019073486,83.4,117.60000019073486,53.8C117.50000019073487,24.1,93.40000019073486,0,63.70000019073486,0C33.900000190734865,0,9.800000190734863,24.1,9.800000190734863,53.7C9.800000190734863,83.4,33.900000190734865,107.5,63.70000019073486,107.5Z" fill="#EAEEF9" fill-opacity="1"/></g><g filter="url(#master_svg_0)" style="mix-blend-mode:passthrough"><path d="M121.2,60.59999554595947C121.2,72.09999554595947,111.9,81.39999554595947,100.3,81.39999554595947C100.1,81.39999554595947,98.4,81.39999554595947,85.9,81.39999554595947C77.2,81.39999554595947,63.3,81.39999554595947,41.1,81.39999554595947L30.5,81.39999554595947C16.6,81.69999554595947,5.5,70.59999554595947,5.5,57.199995545959474C5.5,43.699995545959474,16.7,32.49999554595947,30.8,33.19999554595947C42.9,-4.600004454040528,98.3,0.6999955459594727,103,39.799995545959476C113.4,41.09999554595947,121.2,49.89999554595947,121.2,60.59999554595947Z" fill="url(#master_svg_1)" fill-opacity="1"/></g><g style="mix-blend-mode:passthrough"><path d="M100.30000152587891,81.39999923706054C111.80000152587891,81.39999923706054,121.2000015258789,72.09999923706054,121.2000015258789,60.599999237060544C121.2000015258789,49.099999237060544,111.80000152587891,39.79999923706055,100.30000152587891,39.79999923706055C88.80000152587891,39.79999923706055,79.4000015258789,49.099999237060544,79.4000015258789,60.599999237060544C79.4000015258789,72.09999923706054,88.80000152587891,81.39999923706054,100.30000152587891,81.39999923706054Z" fill="url(#master_svg_2)" fill-opacity="1"/></g><g style="mix-blend-mode:passthrough"><path d="M66.2,81.60000009536743C86.7,81.60000009536743,103.4,65.00000009536743,103.4,44.50000009536743C103.4,24.000000095367433,86.7,7.400000095367432,66.2,7.400000095367432C45.7,7.400000095367432,29,24.000000095367433,29,44.50000009536743C29,65.00000009536743,45.6,81.60000009536743,66.2,81.60000009536743Z" fill="url(#master_svg_3)" fill-opacity="1"/></g><g style="mix-blend-mode:passthrough"><path d="M50.30395330810547,58.800001525878905C54.20395330810547,56.300001525878905,58.80395330810547,54.900001525878906,63.70395330810547,54.900001525878906C77.10395330810547,54.900001525878906,88.00395330810547,65.7000015258789,88.00395330810547,79.10000152587891C88.00395330810547,92.5000015258789,77.10395330810547,103.30000152587891,63.70395330810547,103.30000152587891C50.30395330810547,103.30000152587891,39.40399886810547,92.5000015258789,39.40399886810547,79.10000152587891C39.203999308105466,70.60000152587891,43.60400330810547,63.2000015258789,50.30395330810547,58.800001525878905Z" fill="url(#master_svg_4)" fill-opacity="1"/></g><g style="mix-blend-mode:passthrough"><path d="M65.35000152587891,69.7999984741211L72.1500015258789,76.5999984741211C72.9500015258789,77.39999847412109,72.9500015258789,78.7999984741211,72.1500015258789,79.5999984741211C71.35000152587891,80.39999847412109,69.9500015258789,80.39999847412109,69.05000152587891,79.5999984741211L65.9500015258789,76.5999984741211L65.9500015258789,87.5999984741211C65.9500015258789,88.7999984741211,64.9500015258789,89.7999984741211,63.75000152587891,89.7999984741211C62.550001525878905,89.7999984741211,61.550001525878905,88.7999984741211,61.550001525878905,87.5999984741211L61.550001525878905,76.5999984741211L58.4500015258789,79.5999984741211C57.650001525878906,80.39999847412109,56.25000152587891,80.39999847412109,55.35000152587891,79.5999984741211C54.85000152587891,79.0999984741211,54.650001525878906,78.5999984741211,54.650001525878906,78.0999984741211C54.650001525878906,77.5999984741211,54.85000152587891,76.89999847412109,55.35000152587891,76.5999984741211L62.150001525878906,69.7999984741211C62.4500015258789,69.4999984741211,63.150001525878906,69.0999984741211,63.650001525878906,69.0999984741211C64.1500015258789,69.0999984741211,65.05000152587891,69.2999984741211,65.35000152587891,69.7999984741211Z" fill="#FFFFFF" fill-opacity="1"/></g><g style="mix-blend-mode:passthrough"><path d="M118.9000030517578,34.99999923706055C121.16500305175781,34.99999923706055,123.00000305175782,33.159999237060546,123.00000305175782,30.89999923706055C123.00000305175782,28.629999237060545,121.16500305175781,26.799999237060547,118.9000030517578,26.799999237060547C116.63600305175781,26.799999237060547,114.80000305175781,28.629999237060545,114.80000305175781,30.89999923706055C114.80000305175781,33.159999237060546,116.63600305175781,34.99999923706055,118.9000030517578,34.99999923706055Z" fill="#EAEEF9" fill-opacity="1"/></g><g style="mix-blend-mode:passthrough"><path d="M124.89999847412109,18.999999618530275C126.44699847412109,18.999999618530275,127.69999847412109,17.739999618530273,127.69999847412109,16.199999618530274C127.69999847412109,14.649999618530273,126.44699847412109,13.399999618530273,124.89999847412109,13.399999618530273C123.3539984741211,13.399999618530273,122.0999984741211,14.649999618530273,122.0999984741211,16.199999618530274C122.0999984741211,17.739999618530273,123.3539984741211,18.999999618530275,124.89999847412109,18.999999618530275Z" fill="#EAEEF9" fill-opacity="1"/></g><g style="mix-blend-mode:passthrough"><path d="M11.499999809265137,28.200000381469728C13.046999809265138,28.200000381469728,14.299999809265136,26.940000381469726,14.299999809265136,25.400000381469727C14.299999809265136,23.850000381469727,13.046999809265138,22.600000381469727,11.499999809265137,22.600000381469727C9.953999809265136,22.600000381469727,8.699999809265137,23.850000381469727,8.699999809265137,25.400000381469727C8.699999809265137,26.940000381469726,9.953999809265136,28.200000381469728,11.499999809265137,28.200000381469728Z" fill="#EAEEF9" fill-opacity="1"/></g><g style="mix-blend-mode:passthrough"><path d="M5.2,89.80000152587891C8.072,89.80000152587891,10.4,87.4700015258789,10.4,84.60000152587891C10.4,81.7200015258789,8.072,79.4000015258789,5.2,79.4000015258789C2.328,79.4000015258789,0,81.7200015258789,0,84.60000152587891C0,87.4700015258789,2.328,89.80000152587891,5.2,89.80000152587891Z" fill="#EAEEF9" fill-opacity="1"/></g></g></g></svg>